<svg width="48" height="48" viewBox="0 0 48 48" fill="none" xmlns="http://www.w3.org/2000/svg">
<path d="M24 24C29.5228 24 34 19.5228 34 14C34 8.47715 29.5228 4 24 4C18.4772 4 14 8.47715 14 14C14 19.5228 18.4772 24 24 24Z" stroke="#E85456" stroke-width="2"/>
<path d="M34 28H34.704C36.1662 28.0004 37.5778 28.5347 38.6738 29.5026C39.7698 30.4704 40.4747 31.8051 40.656 33.256L41.438 39.504C41.5083 40.0669 41.4582 40.6382 41.2908 41.1802C41.1234 41.7222 40.8427 42.2224 40.4673 42.6476C40.0918 43.0728 39.6302 43.4133 39.1131 43.6464C38.596 43.8796 38.0352 44.0001 37.468 44H10.532C9.96476 44.0001 9.40399 43.8796 8.88689 43.6464C8.36979 43.4133 7.9082 43.0728 7.53275 42.6476C7.1573 42.2224 6.87657 41.7222 6.70921 41.1802C6.54184 40.6382 6.49166 40.0669 6.562 39.504L7.342 33.256C7.52339 31.8044 8.22883 30.4692 9.32566 29.5012C10.4225 28.5333 11.8352 27.9994 13.298 28H14" stroke="#E85456" stroke-width="2" stroke-linecap="round" stroke-linejoin="round"/>
</svg>
