<svg width="42" height="42" viewBox="0 0 42 42" fill="none" xmlns="http://www.w3.org/2000/svg">
<path d="M23.2749 30.275L15.2249 22.225C15.0499 22.05 14.9262 21.8604 14.8539 21.6562C14.7816 21.4521 14.7448 21.2333 14.7437 21C14.7437 20.7667 14.7804 20.5479 14.8539 20.3437C14.9274 20.1396 15.0511 19.95 15.2249 19.775L23.2749 11.725C23.5957 11.4042 24.0041 11.2437 24.4999 11.2437C24.9957 11.2437 25.4041 11.4042 25.7249 11.725C26.0457 12.0458 26.2062 12.4542 26.2062 12.95C26.2062 13.4458 26.0457 13.8542 25.7249 14.175L18.8999 21L25.7249 27.825C26.0457 28.1458 26.2062 28.5542 26.2062 29.05C26.2062 29.5458 26.0457 29.9542 25.7249 30.275C25.4041 30.5958 24.9957 30.7562 24.4999 30.7562C24.0041 30.7562 23.5957 30.5958 23.2749 30.275Z" fill="white"/>
</svg>
