<svg width="48" height="48" viewBox="0 0 48 48" fill="none" xmlns="http://www.w3.org/2000/svg">
<g clip-path="url(#clip0_286_98)">
<path d="M22.058 5.07999C22.6521 4.75006 23.3204 4.57693 24 4.57693C24.6796 4.57693 25.3479 4.75006 25.942 5.07999L40.972 13.428C41.2836 13.6013 41.5432 13.8547 41.724 14.162C41.9047 14.4694 42 14.8194 42 15.176V31.646C41.9998 32.3593 41.8089 33.0596 41.4471 33.6742C41.0852 34.2889 40.5656 34.7957 39.942 35.142L25.942 42.922C25.3479 43.2519 24.6796 43.425 24 43.425C23.3204 43.425 22.6521 43.2519 22.058 42.922L8.058 35.142C7.43471 34.7958 6.91526 34.2894 6.55343 33.6751C6.19159 33.0608 6.00053 32.3609 6 31.648V15.176C5.99999 14.8194 6.09528 14.4694 6.27603 14.162C6.45678 13.8547 6.71639 13.6013 7.028 13.428L22.058 5.07999Z" stroke="#E85456" stroke-width="2" stroke-linecap="round" stroke-linejoin="round"/>
<path d="M6 14L24 24M24 24L42 14M24 24V44" stroke="#E85456" stroke-width="2" stroke-linejoin="round"/>
<path d="M15 19L33 9M12 24.656L18 28" stroke="#E85456" stroke-width="2" stroke-linecap="round" stroke-linejoin="round"/>
</g>
<defs>
<clipPath id="clip0_286_98">
<rect width="48" height="48" fill="white"/>
</clipPath>
</defs>
</svg>
