<svg xmlns="http://www.w3.org/2000/svg" viewBox="0 0 750 500"><g id="freepik--background-complete--inject-33"><rect x="618.8" y="328.38" width="80.68" height="139.99" style="fill:#ebebeb"></rect><rect x="593.99" y="328.38" width="24.81" height="139.99" style="fill:#e0e0e0"></rect><circle cx="662.47" cy="369.91" r="23.05" transform="translate(-91.39 283.88) rotate(-22.67)" style="fill:#e0e0e0"></circle><path d="M668.2,369.91a5.73,5.73,0,1,1-5.73-5.73A5.73,5.73,0,0,1,668.2,369.91Z" style="fill:#f5f5f5"></path><circle cx="662.47" cy="432.9" r="23.05" transform="translate(128.35 1016.85) rotate(-80.72)" style="fill:#e0e0e0"></circle><path d="M668.2,432.9a5.73,5.73,0,1,1-5.73-5.73A5.73,5.73,0,0,1,668.2,432.9Z" style="fill:#f5f5f5"></path><rect x="58.94" y="328.38" width="80.68" height="139.99" transform="translate(198.55 796.74) rotate(180)" style="fill:#ebebeb"></rect><rect x="139.62" y="328.38" width="24.81" height="139.99" transform="translate(304.04 796.74) rotate(180)" style="fill:#e0e0e0"></rect><circle cx="95.95" cy="369.91" r="23.05" transform="translate(-261.26 234.12) rotate(-54.65)" style="fill:#e0e0e0"></circle><path d="M90.22,369.91A5.73,5.73,0,1,0,96,364.18,5.73,5.73,0,0,0,90.22,369.91Z" style="fill:#f5f5f5"></path><circle cx="95.95" cy="432.9" r="23.05" transform="translate(-110.37 40.42) rotate(-15.23)" style="fill:#e0e0e0"></circle><path d="M90.22,432.9A5.73,5.73,0,1,0,96,427.17,5.73,5.73,0,0,0,90.22,432.9Z" style="fill:#f5f5f5"></path><path d="M88.73,193.36a5.37,5.37,0,1,1-3.68-6.64A5.35,5.35,0,0,1,88.73,193.36Z" style="fill:#ebebeb"></path><path d="M88.48,191.42c-.31.13-2.45-5.11-3.87-11.88s-2.49-12.19-2.21-12.28,2,5.29,3.37,12S88.78,191.31,88.48,191.42Z" style="fill:#ebebeb"></path><path d="M93.55,164.28c.25.18-1.62,2.56-5,3.58s-6.3.13-6.19-.16,2.76,0,5.85-1S93.31,164,93.55,164.28Z" style="fill:#ebebeb"></path><path d="M94.4,169.79c.28.15-1.48,2.6-4.9,3.36s-6.07-.64-5.88-.89,2.61.46,5.61-.26S94.15,169.54,94.4,169.79Z" style="fill:#ebebeb"></path><path d="M488.2,258.07a5.37,5.37,0,1,1-6.77-3.42A5.36,5.36,0,0,1,488.2,258.07Z" style="fill:#ebebeb"></path><path d="M486.9,256.62c-.18.27-4.89-2.86-9.87-7.67s-8.9-8.69-8.72-8.92,4.6,3.28,9.53,8.06S487.09,256.35,486.9,256.62Z" style="fill:#ebebeb"></path><path d="M475.86,231.31c.31,0,.1,3-2.16,5.8s-5.15,3.64-5.21,3.34,2.28-1.55,4.29-4.08S475.52,231.24,475.86,231.31Z" style="fill:#ebebeb"></path><path d="M479.66,235.39c.31,0,.23,3-2.17,5.53s-5.38,2.88-5.37,2.56,2.43-1.08,4.5-3.36S479.32,235.32,479.66,235.39Z" style="fill:#ebebeb"></path><path d="M693,179.62a5.37,5.37,0,1,1-6.78-3.42A5.37,5.37,0,0,1,693,179.62Z" style="fill:#ebebeb"></path><path d="M691.7,178.17c-.18.27-4.89-2.87-9.87-7.67s-8.9-8.69-8.72-8.92,4.6,3.27,9.53,8.06S691.89,177.9,691.7,178.17Z" style="fill:#ebebeb"></path><path d="M680.66,152.86c.31,0,.1,3-2.16,5.8s-5.15,3.64-5.22,3.33,2.28-1.54,4.3-4.07S680.32,152.78,680.66,152.86Z" style="fill:#ebebeb"></path><path d="M684.46,156.94c.31,0,.23,3-2.17,5.53s-5.38,2.88-5.37,2.56,2.43-1.08,4.5-3.36S684.12,156.87,684.46,156.94Z" style="fill:#ebebeb"></path><path d="M123.46,254.08a5.17,5.17,0,1,1-.69-7.28A5.17,5.17,0,0,1,123.46,254.08Z" style="fill:#e0e0e0"></path><path d="M124,252.27c-.5,0-.51-5.51.86-12.05s2.65-11.68,3.11-11.63,0,5.5-1.35,12S124.47,252.3,124,252.27Z" style="fill:#e0e0e0"></path><path d="M143.42,235c.1.41-4.07,1.53-9.06-.05a12.13,12.13,0,0,1-5.59-3.48c-1.14-1.33-1.27-2.49-1.07-2.55s.77.72,2,1.64a16.22,16.22,0,0,0,5.24,2.68C139.38,234.71,143.38,234.47,143.42,235Z" style="fill:#e0e0e0"></path><path d="M138.93,260.52a5.17,5.17,0,1,1-.69-7.28A5.16,5.16,0,0,1,138.93,260.52Z" style="fill:#e0e0e0"></path><path d="M139.45,258.72c-.5,0-.51-5.51.85-12.06S143,235,143.42,235s0,5.5-1.35,12S139.94,258.74,139.45,258.72Z" style="fill:#e0e0e0"></path><path d="M142.86,238.52c.17.44-3.75,1.77-8.48.46s-7.44-4.41-7.07-4.71,3.28,1.85,7.54,3S142.77,238,142.86,238.52Z" style="fill:#e0e0e0"></path><path d="M654.86,262.44a5.17,5.17,0,1,1,.51-7.29A5.16,5.16,0,0,1,654.86,262.44Z" style="fill:#e0e0e0"></path><path d="M655.67,260.75c-.49-.1.4-5.52,2.82-11.75s4.53-11.1,5-11-.88,5.43-3.29,11.6S656.15,260.85,655.67,260.75Z" style="fill:#e0e0e0"></path><path d="M677.67,246.92c0,.42-4.27.84-8.93-1.53A12.16,12.16,0,0,1,663.8,241c-.91-1.5-.85-2.66-.64-2.69s.64.84,1.67,1.95a16.33,16.33,0,0,0,4.73,3.5C673.74,245.94,677.73,246.36,677.67,246.92Z" style="fill:#e0e0e0"></path><path d="M669.07,271.33a5.17,5.17,0,1,1,.51-7.3A5.17,5.17,0,0,1,669.07,271.33Z" style="fill:#e0e0e0"></path><path d="M669.88,269.63c-.49-.1.4-5.52,2.82-11.75s4.52-11.09,5-11-.89,5.43-3.29,11.59S670.36,269.74,669.88,269.63Z" style="fill:#e0e0e0"></path><path d="M676.55,250.27c.09.46-4,1.13-8.44-.94s-6.62-5.56-6.21-5.8,2.94,2.36,7,4.17S676.55,249.74,676.55,250.27Z" style="fill:#e0e0e0"></path><path d="M325.19,283.26a4.39,4.39,0,1,0,.5-6.19A4.4,4.4,0,0,0,325.19,283.26Z" style="fill:#e0e0e0"></path><path d="M324.73,281.74c.42,0,.35-4.69-.89-10.24s-2.4-9.89-2.8-9.84.06,4.67,1.31,10.16S324.31,281.76,324.73,281.74Z" style="fill:#e0e0e0"></path><path d="M308,267.34c-.08.35,3.48,1.24,7.7-.16a10.37,10.37,0,0,0,4.7-3c.95-1.15,1.05-2.13.88-2.18s-.64.63-1.65,1.42a13.79,13.79,0,0,1-4.42,2.35C311.41,267,308,266.86,308,267.34Z" style="fill:#e0e0e0"></path><path d="M312.13,288.94a4.39,4.39,0,1,0,.49-6.2A4.4,4.4,0,0,0,312.13,288.94Z" style="fill:#e0e0e0"></path><path d="M311.66,287.41c.43,0,.36-4.69-.88-10.23s-2.41-9.89-2.8-9.84.06,4.67,1.31,10.16S311.24,287.44,311.66,287.41Z" style="fill:#e0e0e0"></path><path d="M308.5,270.29c-.14.38,3.21,1.46,7.21.28s6.27-3.84,6-4.09-2.76,1.61-6.37,2.63S308.57,269.85,308.5,270.29Z" style="fill:#e0e0e0"></path></g><g id="freepik--Floor--inject-33"><path d="M703.18,467.31c0,.15-146.94.27-328.16.27s-328.2-.12-328.2-.27S193.73,467,375,467,703.18,467.16,703.18,467.31Z" style="fill:#263238"></path></g><g id="freepik--Plant--inject-33"><path d="M434.28,257.73C423.36,263.38,415,273.12,409,283.85s-9.9,22.49-13.75,34.17l-3.36,60.25c12.71-21.62,22.9-47,25.66-71.95l-8.46-.76c5.67-.86,10.43-5,13.46-9.84s4.59-10.49,6.11-16l-10.32,1.54A38.24,38.24,0,0,0,434.28,257.73Z" style="fill:#455a64"></path><g style="opacity:0.30000000000000004"><path d="M434.28,257.73C423.36,263.38,415,273.12,409,283.85s-9.9,22.49-13.75,34.17l-3.36,60.25c12.71-21.62,22.9-47,25.66-71.95l-8.46-.76c5.67-.86,10.43-5,13.46-9.84s4.59-10.49,6.11-16l-10.32,1.54A38.24,38.24,0,0,0,434.28,257.73Z"></path></g><path d="M390,392.39s-27.58-33-27.26-64.53h11.14s-12.11-8-11.15-12.41S364,294.12,364,294.12l10.18,2.55s-7.64-3.82-8.59-9.87,2.23-34.06,2.23-34.06,12.41,13.05,16.23,26.42,13.85,29,10.91,69.71S390,392.39,390,392.39Z" style="fill:#455a64"></path><path d="M404,395.5s29.88-19.9,36.52-45.31l-9-2.43S443,344,443.2,340.21s3.64-17.42,3.64-17.42l-8.75-.19s7-1.39,9.07-6.05,5.66-27.87,5.66-27.87S440,296.46,434,306.37,416.52,326.63,410,360,404,395.5,404,395.5Z" style="fill:#455a64"></path><path d="M375.34,281.52a1.21,1.21,0,0,1,.1.34l.24,1c.21.93.5,2.24.88,3.92s.83,3.78,1.31,6.21,1.06,5.19,1.62,8.25c1.19,6.12,2.43,13.44,3.72,21.58s2.48,17.13,3.59,26.58,1.92,18.47,2.56,26.69,1.07,15.63,1.31,21.86c.16,3.11.23,5.93.31,8.41s.12,4.6.14,6.35,0,3.06,0,4v1a2.45,2.45,0,0,1,0,.36,1.26,1.26,0,0,1,0-.36c0-.26,0-.6-.05-1,0-.95-.08-2.29-.14-4s-.12-3.87-.23-6.34-.2-5.29-.38-8.4c-.3-6.22-.79-13.63-1.42-21.84s-1.53-17.23-2.61-26.67-2.33-18.42-3.55-26.56-2.46-15.46-3.6-21.59c-.53-3.07-1.08-5.83-1.54-8.26s-.87-4.53-1.22-6.23-.6-3-.78-3.94c-.08-.43-.14-.77-.19-1A1.85,1.85,0,0,1,375.34,281.52Z" style="fill:#263238"></path><path d="M386.15,412.6s-25.24-28.63-33.07-46l5.91-2.52c-4.29.7-8.68-1.14-12-3.94s-5.76-6.48-8.16-10.11l7.8-1.31a29,29,0,0,1-17-13.19c9.19,1.51,17.52,6.56,24.37,12.87a121.3,121.3,0,0,1,14.77,17.12,58.91,58.91,0,0,1,5.74,9.43C378.71,383.77,386.17,402.09,386.15,412.6Z" style="fill:#455a64"></path><path d="M440.88,305.35a2.34,2.34,0,0,1-.12.29l-.39.83c-.36.76-.88,1.83-1.53,3.18-1.35,2.75-3.27,6.75-5.59,11.71s-5,10.91-7.88,17.56-5.89,14-8.91,21.81-5.71,15.29-8.08,22.14-4.37,13.06-6,18.29-2.9,9.48-3.75,12.43c-.42,1.44-.76,2.57-1,3.38l-.27.88-.11.29a1.43,1.43,0,0,1,.05-.31l.23-.89c.21-.82.52-2,.9-3.41.79-3,2-7.23,3.59-12.48s3.55-11.47,5.87-18.34,5-14.36,8-22.17,6.08-15.16,9-21.81,5.62-12.58,8-17.53,4.33-8.92,5.74-11.64l1.63-3.13.43-.81C440.81,305.44,440.87,305.34,440.88,305.35Z" style="fill:#263238"></path><path d="M388.29,424.88a2,2,0,0,1-.12-.53c-.07-.41-.15-.91-.25-1.52-.19-1.32-.52-3.23-1-5.57s-1.11-5.11-1.93-8.16-1.9-6.34-3.18-9.75-2.7-6.58-4.06-9.42-2.74-5.34-3.95-7.4-2.21-3.71-2.94-4.83l-.81-1.3c-.19-.31-.28-.47-.26-.48a2.21,2.21,0,0,1,.34.42c.25.33.54.74.91,1.25.78,1.08,1.84,2.7,3.09,4.75s2.63,4.54,4.06,7.37,2.82,6,4.12,9.45,2.32,6.76,3.15,9.82,1.42,5.85,1.83,8.21.69,4.28.82,5.61l.15,1.54A1.74,1.74,0,0,1,388.29,424.88Z" style="fill:#263238"></path><rect x="366.36" y="418.14" width="55.24" height="11.27" style="fill:#E85456"></rect><polygon points="371.62 429.41 377.6 467.31 410.98 467.31 416.55 429.41 371.62 429.41" style="fill:#E85456"></polygon><path d="M418.21,429.41c0,.14-10.45.26-23.34.26s-23.34-.12-23.34-.26,10.45-.27,23.34-.27S418.21,429.26,418.21,429.41Z" style="fill:#263238"></path></g><g id="freepik--Screen--inject-33"><rect x="264.91" y="41.22" width="245.96" height="171.57" style="fill:#455a64"></rect><rect x="274.85" y="51.36" width="225.77" height="151.17" style="fill:#fff"></rect><path d="M500.62,202.53c0-1.73-.08-59.09-.21-151.17l.21.22-225.75.05h0l.27-.27c0,53.86,0,105.07,0,151.17l-.24-.24,162.7.12,46.45.07,12.35,0h4.27l-1.06,0h-3.15l-12.3,0-46.4.07-162.86.12h-.24v-.25c0-46.1,0-97.31,0-151.17V51.1h.29l225.75,0h.22v.21c0,46.1-.09,83.92-.12,110.21,0,13.12,0,23.37-.05,30.34,0,3.48,0,6.13,0,7.93S500.62,202.53,500.62,202.53Z" style="fill:#263238"></path><path d="M308.33,82.56h3.06V93.32H318v2.5h-9.71Z" style="fill:#E85456"></path><path d="M327.42,86.61a4.29,4.29,0,0,1,1.27,3.4v5.81h-2.76V94.55A3.3,3.3,0,0,1,322.82,96a5,5,0,0,1-2-.39,3,3,0,0,1-1.31-1.1,2.82,2.82,0,0,1-.46-1.59,2.67,2.67,0,0,1,1.07-2.24,5.49,5.49,0,0,1,3.31-.81h2.35a1.89,1.89,0,0,0-.59-1.49,2.57,2.57,0,0,0-1.76-.52,5.1,5.1,0,0,0-1.6.25,4.23,4.23,0,0,0-1.34.69l-1.06-2.06a6.58,6.58,0,0,1,2-.91,9.12,9.12,0,0,1,2.39-.32A5.26,5.26,0,0,1,327.42,86.61Zm-2.52,7a1.92,1.92,0,0,0,.84-1v-1h-2c-1.21,0-1.82.4-1.82,1.19a1.06,1.06,0,0,0,.45.9,2,2,0,0,0,1.22.34A2.51,2.51,0,0,0,324.9,93.63Z" style="fill:#E85456"></path><path d="M331.36,81.77h3v14h-3Z" style="fill:#E85456"></path><path d="M344.81,86.61a4.29,4.29,0,0,1,1.27,3.4v5.81h-2.76V94.55A3.29,3.29,0,0,1,340.21,96a5,5,0,0,1-2-.39,3,3,0,0,1-1.31-1.1,2.82,2.82,0,0,1-.46-1.59,2.67,2.67,0,0,1,1.07-2.24,5.51,5.51,0,0,1,3.31-.81h2.35a1.89,1.89,0,0,0-.59-1.49,2.57,2.57,0,0,0-1.76-.52,5.14,5.14,0,0,0-1.6.25,4.23,4.23,0,0,0-1.34.69l-1.06-2.06a6.58,6.58,0,0,1,2-.91,9.14,9.14,0,0,1,2.4-.32A5.25,5.25,0,0,1,344.81,86.61Zm-2.52,7a1.88,1.88,0,0,0,.84-1v-1h-2c-1.21,0-1.82.4-1.82,1.19a1.06,1.06,0,0,0,.45.9A2,2,0,0,0,341,94,2.51,2.51,0,0,0,342.29,93.63Z" style="fill:#E85456"></path><path d="M354.12,81.77h2.95v14h-2.95Z" style="fill:#E85456"></path><path d="M367.57,86.61a4.33,4.33,0,0,1,1.27,3.4v5.81h-2.77V94.55A3.29,3.29,0,0,1,363,96a4.87,4.87,0,0,1-2-.39,3,3,0,0,1-1.32-1.1,2.89,2.89,0,0,1-.45-1.59,2.64,2.64,0,0,1,1.07-2.24,5.45,5.45,0,0,1,3.3-.81h2.35a1.89,1.89,0,0,0-.59-1.49,2.57,2.57,0,0,0-1.76-.52,5.14,5.14,0,0,0-1.6.25,4.18,4.18,0,0,0-1.33.69l-1.07-2.06a6.69,6.69,0,0,1,2-.91,9.2,9.2,0,0,1,2.4-.32A5.27,5.27,0,0,1,367.57,86.61Zm-2.52,7a1.86,1.86,0,0,0,.83-1v-1h-2c-1.21,0-1.82.4-1.82,1.19a1.06,1.06,0,0,0,.45.9,2,2,0,0,0,1.22.34A2.52,2.52,0,0,0,365.05,93.63Z" style="fill:#E85456"></path><path d="M371.51,81.77h2.95v14h-2.95Z" style="fill:#E85456"></path><path d="M385,86.61a4.29,4.29,0,0,1,1.27,3.4v5.81h-2.77V94.55a3.28,3.28,0,0,1-3.1,1.42,4.88,4.88,0,0,1-2-.39,3.07,3.07,0,0,1-1.32-1.1,2.89,2.89,0,0,1-.45-1.59,2.64,2.64,0,0,1,1.07-2.24,5.45,5.45,0,0,1,3.3-.81h2.35a1.89,1.89,0,0,0-.58-1.49,2.6,2.6,0,0,0-1.77-.52,5.19,5.19,0,0,0-1.6.25,4.18,4.18,0,0,0-1.33.69l-1.06-2.06a6.47,6.47,0,0,1,2-.91,9.06,9.06,0,0,1,2.39-.32A5.27,5.27,0,0,1,385,86.61Zm-2.52,7a1.86,1.86,0,0,0,.83-1v-1h-2c-1.22,0-1.82.4-1.82,1.19a1.07,1.07,0,0,0,.44.9,2,2,0,0,0,1.22.34A2.52,2.52,0,0,0,382.44,93.63Z" style="fill:#E85456"></path><path d="M394.26,81.77h3v14h-3Z" style="fill:#E85456"></path><path d="M407.71,86.61A4.29,4.29,0,0,1,409,90v5.81h-2.76V94.55A3.3,3.3,0,0,1,403.11,96a4.92,4.92,0,0,1-2-.39,3.13,3.13,0,0,1-1.32-1.1,2.89,2.89,0,0,1-.45-1.59,2.67,2.67,0,0,1,1.07-2.24,5.49,5.49,0,0,1,3.31-.81H406a1.89,1.89,0,0,0-.59-1.49,2.57,2.57,0,0,0-1.76-.52,5.1,5.1,0,0,0-1.6.25,4.23,4.23,0,0,0-1.34.69l-1.06-2.06a6.47,6.47,0,0,1,2-.91,9.06,9.06,0,0,1,2.39-.32A5.26,5.26,0,0,1,407.71,86.61Zm-2.52,7a1.92,1.92,0,0,0,.84-1v-1h-2c-1.21,0-1.82.4-1.82,1.19a1.07,1.07,0,0,0,.44.9,2,2,0,0,0,1.23.34A2.51,2.51,0,0,0,405.19,93.63Z" style="fill:#E85456"></path><path d="M417,81.77h3v14h-3Z" style="fill:#E85456"></path><path d="M430.46,86.61a4.29,4.29,0,0,1,1.27,3.4v5.81H429V94.55A3.29,3.29,0,0,1,425.86,96a5,5,0,0,1-2-.39,3,3,0,0,1-1.31-1.1,2.82,2.82,0,0,1-.46-1.59,2.67,2.67,0,0,1,1.07-2.24,5.51,5.51,0,0,1,3.31-.81h2.35a1.89,1.89,0,0,0-.59-1.49,2.57,2.57,0,0,0-1.76-.52,5.14,5.14,0,0,0-1.6.25,4.23,4.23,0,0,0-1.34.69l-1.06-2.06a6.58,6.58,0,0,1,2-.91,9.2,9.2,0,0,1,2.4-.32A5.23,5.23,0,0,1,430.46,86.61Zm-2.51,7a1.91,1.91,0,0,0,.83-1v-1h-2c-1.21,0-1.82.4-1.82,1.19a1.06,1.06,0,0,0,.45.9,2,2,0,0,0,1.22.34A2.55,2.55,0,0,0,428,93.63Z" style="fill:#E85456"></path><path d="M439.77,81.77h3v14h-3Z" style="fill:#E85456"></path><path d="M453.22,86.61a4.33,4.33,0,0,1,1.27,3.4v5.81h-2.77V94.55A3.28,3.28,0,0,1,448.61,96a4.87,4.87,0,0,1-2-.39,3,3,0,0,1-1.32-1.1,2.89,2.89,0,0,1-.45-1.59,2.64,2.64,0,0,1,1.07-2.24,5.45,5.45,0,0,1,3.3-.81h2.35a1.89,1.89,0,0,0-.58-1.49,2.6,2.6,0,0,0-1.77-.52,5.19,5.19,0,0,0-1.6.25,4.18,4.18,0,0,0-1.33.69l-1.06-2.06a6.52,6.52,0,0,1,2-.91,9.2,9.2,0,0,1,2.4-.32A5.27,5.27,0,0,1,453.22,86.61Zm-2.52,7a1.86,1.86,0,0,0,.83-1v-1h-2c-1.22,0-1.82.4-1.82,1.19a1,1,0,0,0,.44.9,2,2,0,0,0,1.22.34A2.52,2.52,0,0,0,450.7,93.63Z" style="fill:#E85456"></path><path d="M464.91,86.61a4.33,4.33,0,0,1,1.27,3.4v5.81h-2.77V94.55A3.29,3.29,0,0,1,460.3,96a4.87,4.87,0,0,1-2-.39,3,3,0,0,1-1.32-1.1,2.89,2.89,0,0,1-.45-1.59,2.64,2.64,0,0,1,1.07-2.24,5.45,5.45,0,0,1,3.3-.81h2.35a1.89,1.89,0,0,0-.59-1.49,2.57,2.57,0,0,0-1.76-.52,5.14,5.14,0,0,0-1.6.25,4.18,4.18,0,0,0-1.33.69l-1.07-2.06a6.69,6.69,0,0,1,2-.91,9.2,9.2,0,0,1,2.4-.32A5.27,5.27,0,0,1,464.91,86.61Zm-2.52,7a1.86,1.86,0,0,0,.83-1v-1h-2c-1.21,0-1.82.4-1.82,1.19a1.06,1.06,0,0,0,.45.9A2,2,0,0,0,461,94,2.52,2.52,0,0,0,462.39,93.63Z" style="fill:#E85456"></path><path d="M476.6,86.61a4.33,4.33,0,0,1,1.27,3.4v5.81H475.1V94.55A3.29,3.29,0,0,1,472,96a4.87,4.87,0,0,1-2-.39,3,3,0,0,1-1.32-1.1,2.9,2.9,0,0,1-.46-1.59,2.67,2.67,0,0,1,1.07-2.24,5.51,5.51,0,0,1,3.31-.81h2.35a1.89,1.89,0,0,0-.59-1.49,2.57,2.57,0,0,0-1.76-.52,5.14,5.14,0,0,0-1.6.25,4.34,4.34,0,0,0-1.34.69l-1.06-2.06a6.69,6.69,0,0,1,2-.91,9.2,9.2,0,0,1,2.4-.32A5.27,5.27,0,0,1,476.6,86.61Zm-2.52,7a1.86,1.86,0,0,0,.83-1v-1h-2c-1.21,0-1.82.4-1.82,1.19a1.06,1.06,0,0,0,.45.9,2,2,0,0,0,1.22.34A2.55,2.55,0,0,0,474.08,93.63Z" style="fill:#E85456"></path><path d="M303.43,133.22h3v14.05h-3Z"></path><path d="M316.88,138.06a4.29,4.29,0,0,1,1.27,3.4v5.81h-2.76V146a3.29,3.29,0,0,1-3.11,1.42,5,5,0,0,1-2-.39,3.11,3.11,0,0,1-1.31-1.1,2.82,2.82,0,0,1-.46-1.59,2.67,2.67,0,0,1,1.07-2.24,5.51,5.51,0,0,1,3.31-.81h2.35a1.89,1.89,0,0,0-.59-1.49,2.57,2.57,0,0,0-1.76-.52,5.14,5.14,0,0,0-1.6.25,4.23,4.23,0,0,0-1.34.69l-1.06-2.06a6.58,6.58,0,0,1,2-.91,9.2,9.2,0,0,1,2.4-.32A5.23,5.23,0,0,1,316.88,138.06Zm-2.51,7a1.91,1.91,0,0,0,.83-1v-1h-2c-1.21,0-1.82.4-1.82,1.19a1.06,1.06,0,0,0,.45.9,2,2,0,0,0,1.22.34A2.57,2.57,0,0,0,314.37,145.08Z"></path><path d="M326.19,133.22h2.95v14.05h-2.95Z"></path><path d="M339.64,138.06a4.33,4.33,0,0,1,1.27,3.4v5.81h-2.77V146a3.28,3.28,0,0,1-3.11,1.42,4.87,4.87,0,0,1-2-.39,3.08,3.08,0,0,1-1.32-1.1,2.89,2.89,0,0,1-.45-1.59,2.64,2.64,0,0,1,1.07-2.24,5.45,5.45,0,0,1,3.3-.81H338a1.86,1.86,0,0,0-.59-1.49,2.55,2.55,0,0,0-1.76-.52,5.19,5.19,0,0,0-1.6.25,4.18,4.18,0,0,0-1.33.69l-1.06-2.06a6.52,6.52,0,0,1,2-.91,9.2,9.2,0,0,1,2.4-.32A5.27,5.27,0,0,1,339.64,138.06Zm-2.52,7a1.86,1.86,0,0,0,.83-1v-1h-2c-1.21,0-1.81.4-1.81,1.19a1,1,0,0,0,.44.9,2,2,0,0,0,1.22.34A2.52,2.52,0,0,0,337.12,145.08Z"></path><path d="M348.94,133.22h3v14.05h-3Z"></path><path d="M362.39,138.06a4.29,4.29,0,0,1,1.27,3.4v5.81h-2.77V146a3.28,3.28,0,0,1-3.1,1.42,4.92,4.92,0,0,1-2-.39,3.21,3.21,0,0,1-1.32-1.1,2.89,2.89,0,0,1-.45-1.59,2.67,2.67,0,0,1,1.07-2.24,5.49,5.49,0,0,1,3.31-.81h2.35a1.89,1.89,0,0,0-.59-1.49,2.57,2.57,0,0,0-1.76-.52,5.1,5.1,0,0,0-1.6.25,4.23,4.23,0,0,0-1.34.69l-1.06-2.06a6.47,6.47,0,0,1,2-.91,9.06,9.06,0,0,1,2.39-.32A5.26,5.26,0,0,1,362.39,138.06Zm-2.52,7a1.92,1.92,0,0,0,.84-1v-1h-2c-1.21,0-1.82.4-1.82,1.19a1.07,1.07,0,0,0,.44.9,2,2,0,0,0,1.23.34A2.51,2.51,0,0,0,359.87,145.08Z"></path><path d="M374.08,138.06a4.29,4.29,0,0,1,1.27,3.4v5.81h-2.77V146a3.28,3.28,0,0,1-3.1,1.42,4.88,4.88,0,0,1-2-.39,3.14,3.14,0,0,1-1.32-1.1,2.89,2.89,0,0,1-.45-1.59,2.64,2.64,0,0,1,1.07-2.24,5.45,5.45,0,0,1,3.3-.81h2.35a1.89,1.89,0,0,0-.58-1.49,2.6,2.6,0,0,0-1.77-.52,5.19,5.19,0,0,0-1.6.25,4.18,4.18,0,0,0-1.33.69l-1.06-2.06a6.47,6.47,0,0,1,2-.91,9.06,9.06,0,0,1,2.39-.32A5.27,5.27,0,0,1,374.08,138.06Zm-2.52,7a1.86,1.86,0,0,0,.83-1v-1h-2c-1.22,0-1.82.4-1.82,1.19a1.07,1.07,0,0,0,.44.9,2,2,0,0,0,1.23.34A2.51,2.51,0,0,0,371.56,145.08Z"></path><path d="M385.77,138.06a4.29,4.29,0,0,1,1.27,3.4v5.81h-2.77V146a3.28,3.28,0,0,1-3.11,1.42,4.87,4.87,0,0,1-2-.39,3.14,3.14,0,0,1-1.32-1.1,2.89,2.89,0,0,1-.45-1.59,2.64,2.64,0,0,1,1.07-2.24,5.45,5.45,0,0,1,3.3-.81h2.35a1.89,1.89,0,0,0-.58-1.49,2.6,2.6,0,0,0-1.77-.52,5.19,5.19,0,0,0-1.6.25,4.18,4.18,0,0,0-1.33.69l-1.06-2.06a6.52,6.52,0,0,1,2-.91,9.2,9.2,0,0,1,2.4-.32A5.27,5.27,0,0,1,385.77,138.06Zm-2.52,7a1.86,1.86,0,0,0,.83-1v-1h-2c-1.22,0-1.82.4-1.82,1.19a1.07,1.07,0,0,0,.44.9,2,2,0,0,0,1.22.34A2.52,2.52,0,0,0,383.25,145.08Z"></path><path d="M397.46,138.06a4.33,4.33,0,0,1,1.27,3.4v5.81H396V146a3.28,3.28,0,0,1-3.11,1.42,4.87,4.87,0,0,1-2-.39,3.08,3.08,0,0,1-1.32-1.1,2.89,2.89,0,0,1-.45-1.59,2.64,2.64,0,0,1,1.07-2.24,5.45,5.45,0,0,1,3.3-.81h2.35a1.89,1.89,0,0,0-.58-1.49,2.6,2.6,0,0,0-1.77-.52,5.19,5.19,0,0,0-1.6.25,4.18,4.18,0,0,0-1.33.69l-1.06-2.06a6.52,6.52,0,0,1,2-.91,9.2,9.2,0,0,1,2.4-.32A5.27,5.27,0,0,1,397.46,138.06Zm-2.52,7a1.86,1.86,0,0,0,.83-1v-1h-2c-1.21,0-1.81.4-1.81,1.19a1,1,0,0,0,.44.9,2,2,0,0,0,1.22.34A2.52,2.52,0,0,0,394.94,145.08Z"></path><path d="M409.15,138.06a4.33,4.33,0,0,1,1.27,3.4v5.81h-2.77V146a3.29,3.29,0,0,1-3.11,1.42,4.87,4.87,0,0,1-2-.39,3.08,3.08,0,0,1-1.32-1.1,2.89,2.89,0,0,1-.45-1.59,2.64,2.64,0,0,1,1.07-2.24,5.45,5.45,0,0,1,3.3-.81h2.35a1.86,1.86,0,0,0-.59-1.49,2.57,2.57,0,0,0-1.76-.52,5.19,5.19,0,0,0-1.6.25,4.18,4.18,0,0,0-1.33.69l-1.07-2.06a6.69,6.69,0,0,1,2-.91,9.2,9.2,0,0,1,2.4-.32A5.27,5.27,0,0,1,409.15,138.06Zm-2.52,7a1.86,1.86,0,0,0,.83-1v-1h-2c-1.21,0-1.81.4-1.81,1.19a1,1,0,0,0,.44.9,2,2,0,0,0,1.22.34A2.52,2.52,0,0,0,406.63,145.08Z"></path><path d="M418.45,133.22h3v14.05h-3Z"></path><path d="M431.9,138.06a4.29,4.29,0,0,1,1.27,3.4v5.81H430.4V146a3.28,3.28,0,0,1-3.1,1.42,4.92,4.92,0,0,1-2-.39,3.21,3.21,0,0,1-1.32-1.1,2.89,2.89,0,0,1-.45-1.59,2.67,2.67,0,0,1,1.07-2.24,5.49,5.49,0,0,1,3.31-.81h2.35a1.89,1.89,0,0,0-.59-1.49,2.57,2.57,0,0,0-1.76-.52,5.21,5.21,0,0,0-1.61.25,4.29,4.29,0,0,0-1.33.69l-1.06-2.06a6.47,6.47,0,0,1,2-.91,9.06,9.06,0,0,1,2.39-.32A5.27,5.27,0,0,1,431.9,138.06Zm-2.52,7a1.92,1.92,0,0,0,.84-1v-1h-2c-1.22,0-1.82.4-1.82,1.19a1.07,1.07,0,0,0,.44.9,2,2,0,0,0,1.23.34A2.51,2.51,0,0,0,429.38,145.08Z"></path><path d="M441.2,133.22h3v14.05h-3Z"></path><path d="M454.65,138.06a4.29,4.29,0,0,1,1.27,3.4v5.81h-2.76V146a3.29,3.29,0,0,1-3.11,1.42,5,5,0,0,1-2-.39,3.11,3.11,0,0,1-1.31-1.1,2.82,2.82,0,0,1-.46-1.59,2.67,2.67,0,0,1,1.07-2.24,5.51,5.51,0,0,1,3.31-.81H453a1.89,1.89,0,0,0-.59-1.49,2.57,2.57,0,0,0-1.76-.52,5.14,5.14,0,0,0-1.6.25,4.23,4.23,0,0,0-1.34.69l-1.06-2.06a6.58,6.58,0,0,1,2-.91,9.2,9.2,0,0,1,2.4-.32A5.23,5.23,0,0,1,454.65,138.06Zm-2.52,7a1.88,1.88,0,0,0,.84-1v-1h-2c-1.21,0-1.82.4-1.82,1.19a1.06,1.06,0,0,0,.45.9,2,2,0,0,0,1.22.34A2.49,2.49,0,0,0,452.13,145.08Z"></path><path d="M464,133.22h3v14.05h-3Z"></path><path d="M477.41,138.06a4.33,4.33,0,0,1,1.27,3.4v5.81h-2.77V146a3.29,3.29,0,0,1-3.11,1.42,4.87,4.87,0,0,1-2-.39,3.08,3.08,0,0,1-1.32-1.1,2.89,2.89,0,0,1-.45-1.59,2.64,2.64,0,0,1,1.07-2.24,5.45,5.45,0,0,1,3.3-.81h2.35a1.89,1.89,0,0,0-.59-1.49,2.57,2.57,0,0,0-1.76-.52,5.14,5.14,0,0,0-1.6.25,4.18,4.18,0,0,0-1.33.69l-1.07-2.06a6.69,6.69,0,0,1,2-.91,9.2,9.2,0,0,1,2.4-.32A5.27,5.27,0,0,1,477.41,138.06Zm-2.52,7a1.86,1.86,0,0,0,.83-1v-1h-2c-1.21,0-1.82.4-1.82,1.19a1.06,1.06,0,0,0,.45.9,2,2,0,0,0,1.22.34A2.52,2.52,0,0,0,474.89,145.08Z"></path><path d="M315.78,156.92h3V171h-3Z" style="fill:#e0e0e0"></path><path d="M329.23,161.76a4.29,4.29,0,0,1,1.27,3.4V171h-2.77V169.7a3.28,3.28,0,0,1-3.1,1.42,4.88,4.88,0,0,1-2-.39,3.07,3.07,0,0,1-1.32-1.1,2.89,2.89,0,0,1-.45-1.59,2.64,2.64,0,0,1,1.07-2.24,5.45,5.45,0,0,1,3.3-.81h2.35a1.89,1.89,0,0,0-.58-1.49,2.6,2.6,0,0,0-1.77-.52,5.19,5.19,0,0,0-1.6.25,4,4,0,0,0-1.33.7l-1.06-2.07a6.47,6.47,0,0,1,2-.91,9.06,9.06,0,0,1,2.39-.32A5.27,5.27,0,0,1,329.23,161.76Zm-2.52,7a1.86,1.86,0,0,0,.83-1v-1h-2c-1.22,0-1.82.4-1.82,1.19a1.07,1.07,0,0,0,.44.9,2,2,0,0,0,1.22.34A2.52,2.52,0,0,0,326.71,168.78Z" style="fill:#e0e0e0"></path><path d="M338.53,156.92h3V171h-3Z" style="fill:#e0e0e0"></path><path d="M352,161.76a4.29,4.29,0,0,1,1.27,3.4V171h-2.76V169.7a3.3,3.3,0,0,1-3.11,1.42,5,5,0,0,1-2-.39,3,3,0,0,1-1.31-1.1,2.82,2.82,0,0,1-.46-1.59,2.67,2.67,0,0,1,1.07-2.24A5.49,5.49,0,0,1,348,165h2.35a1.89,1.89,0,0,0-.59-1.49A2.57,2.57,0,0,0,348,163a5.1,5.1,0,0,0-1.6.25,4.05,4.05,0,0,0-1.34.7L344,161.86a6.58,6.58,0,0,1,2-.91,9.12,9.12,0,0,1,2.39-.32A5.26,5.26,0,0,1,352,161.76Zm-2.52,7a1.92,1.92,0,0,0,.84-1v-1h-2c-1.21,0-1.82.4-1.82,1.19a1.06,1.06,0,0,0,.45.9,2,2,0,0,0,1.22.34A2.51,2.51,0,0,0,349.46,168.78Z" style="fill:#e0e0e0"></path><path d="M361.28,156.92h3V171h-3Z" style="fill:#e0e0e0"></path><path d="M374.74,161.76a4.33,4.33,0,0,1,1.27,3.4V171h-2.77V169.7a3.29,3.29,0,0,1-3.11,1.42,4.87,4.87,0,0,1-2-.39,3,3,0,0,1-1.32-1.1,2.9,2.9,0,0,1-.46-1.59,2.67,2.67,0,0,1,1.07-2.24,5.51,5.51,0,0,1,3.31-.81h2.35a1.89,1.89,0,0,0-.59-1.49,2.57,2.57,0,0,0-1.76-.52,5.14,5.14,0,0,0-1.6.25,4.05,4.05,0,0,0-1.34.7l-1.06-2.07a6.58,6.58,0,0,1,2-.91,9.2,9.2,0,0,1,2.4-.32A5.27,5.27,0,0,1,374.74,161.76Zm-2.52,7a1.86,1.86,0,0,0,.83-1v-1h-2c-1.21,0-1.82.4-1.82,1.19a1.06,1.06,0,0,0,.45.9,2,2,0,0,0,1.22.34A2.55,2.55,0,0,0,372.22,168.78Z" style="fill:#e0e0e0"></path><path d="M386.42,161.76a4.29,4.29,0,0,1,1.27,3.4V171h-2.76V169.7a3.29,3.29,0,0,1-3.11,1.42,5,5,0,0,1-2-.39,3,3,0,0,1-1.31-1.1A2.9,2.9,0,0,1,378,168a2.67,2.67,0,0,1,1.07-2.24,5.51,5.51,0,0,1,3.31-.81h2.35a1.89,1.89,0,0,0-.59-1.49,2.57,2.57,0,0,0-1.76-.52,5.14,5.14,0,0,0-1.6.25,4.05,4.05,0,0,0-1.34.7l-1.06-2.07a6.58,6.58,0,0,1,2-.91,9.2,9.2,0,0,1,2.4-.32A5.23,5.23,0,0,1,386.42,161.76Zm-2.52,7a1.88,1.88,0,0,0,.84-1v-1h-2c-1.21,0-1.82.4-1.82,1.19a1.06,1.06,0,0,0,.45.9,2,2,0,0,0,1.22.34A2.51,2.51,0,0,0,383.9,168.78Z" style="fill:#e0e0e0"></path><path d="M398.11,161.76a4.29,4.29,0,0,1,1.27,3.4V171h-2.76V169.7a3.29,3.29,0,0,1-3.11,1.42,5,5,0,0,1-2-.39,3,3,0,0,1-1.31-1.1,2.82,2.82,0,0,1-.46-1.59,2.67,2.67,0,0,1,1.07-2.24,5.51,5.51,0,0,1,3.31-.81h2.35a1.89,1.89,0,0,0-.59-1.49,2.57,2.57,0,0,0-1.76-.52,5.1,5.1,0,0,0-1.6.25,4.05,4.05,0,0,0-1.34.7l-1.06-2.07a6.58,6.58,0,0,1,2-.91,9.2,9.2,0,0,1,2.4-.32A5.25,5.25,0,0,1,398.11,161.76Zm-2.52,7a1.92,1.92,0,0,0,.84-1v-1h-2c-1.21,0-1.82.4-1.82,1.19a1.06,1.06,0,0,0,.45.9,2,2,0,0,0,1.22.34A2.51,2.51,0,0,0,395.59,168.78Z" style="fill:#e0e0e0"></path><path d="M409.8,161.76a4.29,4.29,0,0,1,1.27,3.4V171h-2.76V169.7a3.3,3.3,0,0,1-3.11,1.42,5,5,0,0,1-2-.39,3,3,0,0,1-1.31-1.1,2.82,2.82,0,0,1-.46-1.59,2.67,2.67,0,0,1,1.07-2.24,5.51,5.51,0,0,1,3.31-.81h2.35a1.89,1.89,0,0,0-.59-1.49,2.57,2.57,0,0,0-1.76-.52,5.1,5.1,0,0,0-1.6.25,4.05,4.05,0,0,0-1.34.7l-1.06-2.07a6.58,6.58,0,0,1,2-.91,9.14,9.14,0,0,1,2.4-.32A5.25,5.25,0,0,1,409.8,161.76Zm-2.52,7a1.92,1.92,0,0,0,.84-1v-1h-2c-1.21,0-1.82.4-1.82,1.19a1.06,1.06,0,0,0,.45.9,2,2,0,0,0,1.22.34A2.51,2.51,0,0,0,407.28,168.78Z" style="fill:#e0e0e0"></path><path d="M421.49,161.76a4.29,4.29,0,0,1,1.27,3.4V171H420V169.7a3.3,3.3,0,0,1-3.11,1.42,5,5,0,0,1-2-.39,3,3,0,0,1-1.31-1.1,2.82,2.82,0,0,1-.46-1.59,2.67,2.67,0,0,1,1.07-2.24,5.49,5.49,0,0,1,3.31-.81h2.35a1.89,1.89,0,0,0-.59-1.49,2.57,2.57,0,0,0-1.76-.52,5.1,5.1,0,0,0-1.6.25,4.05,4.05,0,0,0-1.34.7l-1.06-2.07a6.58,6.58,0,0,1,2-.91,9.12,9.12,0,0,1,2.39-.32A5.26,5.26,0,0,1,421.49,161.76Zm-2.52,7a1.92,1.92,0,0,0,.84-1v-1h-2c-1.21,0-1.82.4-1.82,1.19a1.06,1.06,0,0,0,.45.9,2,2,0,0,0,1.22.34A2.51,2.51,0,0,0,419,168.78Z" style="fill:#e0e0e0"></path><path d="M430.79,156.92h3V171h-3Z" style="fill:#e0e0e0"></path><path d="M444.25,161.76a4.32,4.32,0,0,1,1.26,3.4V171h-2.76V169.7a3.29,3.29,0,0,1-3.11,1.42,4.87,4.87,0,0,1-2-.39,3,3,0,0,1-1.32-1.1,2.9,2.9,0,0,1-.46-1.59,2.67,2.67,0,0,1,1.07-2.24,5.51,5.51,0,0,1,3.31-.81h2.35a1.89,1.89,0,0,0-.59-1.49,2.57,2.57,0,0,0-1.76-.52,5.14,5.14,0,0,0-1.6.25,4.05,4.05,0,0,0-1.34.7l-1.06-2.07a6.58,6.58,0,0,1,2-.91,9.2,9.2,0,0,1,2.4-.32A5.27,5.27,0,0,1,444.25,161.76Zm-2.52,7a1.86,1.86,0,0,0,.83-1v-1h-2c-1.21,0-1.82.4-1.82,1.19a1.06,1.06,0,0,0,.45.9,2,2,0,0,0,1.22.34A2.55,2.55,0,0,0,441.73,168.78Z" style="fill:#e0e0e0"></path><path d="M453.55,156.92h2.95V171h-2.95Z" style="fill:#e0e0e0"></path><path d="M467,161.76a4.29,4.29,0,0,1,1.27,3.4V171H465.5V169.7a3.28,3.28,0,0,1-3.1,1.42,4.88,4.88,0,0,1-2-.39,3.07,3.07,0,0,1-1.32-1.1,2.89,2.89,0,0,1-.45-1.59,2.64,2.64,0,0,1,1.07-2.24A5.45,5.45,0,0,1,463,165h2.35a1.89,1.89,0,0,0-.58-1.49A2.6,2.6,0,0,0,463,163a5.19,5.19,0,0,0-1.6.25,4,4,0,0,0-1.33.7L459,161.86a6.52,6.52,0,0,1,2-.91,9.2,9.2,0,0,1,2.4-.32A5.27,5.27,0,0,1,467,161.76Zm-2.52,7a1.86,1.86,0,0,0,.83-1v-1h-2c-1.22,0-1.82.4-1.82,1.19a1.07,1.07,0,0,0,.44.9,2,2,0,0,0,1.22.34A2.52,2.52,0,0,0,464.48,168.78Z" style="fill:#e0e0e0"></path><path d="M317.74,121.17a5,5,0,0,1-2-1.87,5.46,5.46,0,0,1,0-5.42,5,5,0,0,1,2-1.86,6.46,6.46,0,0,1,5.77,0,5,5,0,0,1,2,1.86,5.46,5.46,0,0,1,0,5.42,5,5,0,0,1-2,1.87,6.55,6.55,0,0,1-5.77,0Zm4.75-2.52a2.87,2.87,0,0,0,.73-2.06,2.83,2.83,0,0,0-.73-2,2.41,2.41,0,0,0-1.86-.77,2.47,2.47,0,0,0-1.88.77,2.83,2.83,0,0,0-.74,2,2.87,2.87,0,0,0,.74,2.06,2.49,2.49,0,0,0,1.88.76A2.44,2.44,0,0,0,322.49,118.65Z" style="fill:#E85456"></path><path d="M337.44,112.48a4.49,4.49,0,0,1,1.17,3.37v5.84h-3v-5.38a2.63,2.63,0,0,0-.53-1.81,1.92,1.92,0,0,0-1.53-.6,2.34,2.34,0,0,0-1.78.69,2.84,2.84,0,0,0-.67,2.06v5h-2.95V107.63h2.95v4.93a3.75,3.75,0,0,1,1.42-.9,5.16,5.16,0,0,1,1.82-.32A4.17,4.17,0,0,1,337.44,112.48Z" style="fill:#E85456"></path><path d="M350.53,112.48a4.49,4.49,0,0,1,1.17,3.37v5.84h-3v-5.38a2.63,2.63,0,0,0-.53-1.81,1.92,1.92,0,0,0-1.53-.6,2.34,2.34,0,0,0-1.78.69,2.84,2.84,0,0,0-.67,2.06v5h-3V107.63h3v4.93a3.79,3.79,0,0,1,1.43-.9,5.06,5.06,0,0,1,1.81-.32A4.17,4.17,0,0,1,350.53,112.48Z" style="fill:#E85456"></path><path d="M363.62,112.48a4.49,4.49,0,0,1,1.17,3.37v5.84h-3v-5.38a2.63,2.63,0,0,0-.53-1.81,1.92,1.92,0,0,0-1.53-.6,2.34,2.34,0,0,0-1.78.69,2.88,2.88,0,0,0-.66,2.06v5h-3V107.63h3v4.93a3.67,3.67,0,0,1,1.42-.9,5.08,5.08,0,0,1,1.82-.32A4.16,4.16,0,0,1,363.62,112.48Z" style="fill:#E85456"></path><path d="M376.72,112.48a4.53,4.53,0,0,1,1.16,3.37v5.84h-2.95v-5.38a2.68,2.68,0,0,0-.53-1.81,2,2,0,0,0-1.54-.6,2.34,2.34,0,0,0-1.78.69,2.88,2.88,0,0,0-.66,2.06v5h-3V107.63h3v4.93a3.67,3.67,0,0,1,1.42-.9,5.08,5.08,0,0,1,1.82-.32A4.2,4.2,0,0,1,376.72,112.48Z" style="fill:#E85456"></path><path d="M387.87,121.17a5,5,0,0,1-2-1.87,5.46,5.46,0,0,1,0-5.42,5,5,0,0,1,2-1.86,6.13,6.13,0,0,1,2.89-.68,6,6,0,0,1,2.88.68,5,5,0,0,1,2,1.86,5.46,5.46,0,0,1,0,5.42,5,5,0,0,1-2,1.87,6,6,0,0,1-2.88.67A6.13,6.13,0,0,1,387.87,121.17Zm4.76-2.52a2.87,2.87,0,0,0,.73-2.06,2.83,2.83,0,0,0-.73-2,2.66,2.66,0,0,0-3.74,0,2.83,2.83,0,0,0-.74,2,2.87,2.87,0,0,0,.74,2.06,2.68,2.68,0,0,0,3.74,0Z"></path><path d="M407.58,112.48a4.49,4.49,0,0,1,1.16,3.37v5.84h-2.95v-5.38a2.68,2.68,0,0,0-.53-1.81,2,2,0,0,0-1.54-.6,2.36,2.36,0,0,0-1.78.69,2.88,2.88,0,0,0-.66,2.06v5h-3V107.63h3v4.93a3.67,3.67,0,0,1,1.42-.9,5.12,5.12,0,0,1,1.82-.32A4.2,4.2,0,0,1,407.58,112.48Z"></path><path d="M418.74,121.17a5,5,0,0,1-2-1.87,5.46,5.46,0,0,1,0-5.42,4.92,4.92,0,0,1,2-1.86,6.46,6.46,0,0,1,5.77,0,5,5,0,0,1,2,1.86,5.46,5.46,0,0,1,0,5.42,5,5,0,0,1-2,1.87,6.55,6.55,0,0,1-5.77,0Zm4.75-2.52a2.87,2.87,0,0,0,.73-2.06,2.83,2.83,0,0,0-.73-2,2.42,2.42,0,0,0-1.86-.77,2.47,2.47,0,0,0-1.88.77,2.83,2.83,0,0,0-.74,2,2.87,2.87,0,0,0,.74,2.06,2.49,2.49,0,0,0,1.88.76A2.45,2.45,0,0,0,423.49,118.65Z"></path><path d="M438.44,112.48a4.49,4.49,0,0,1,1.17,3.37v5.84h-3v-5.38a2.68,2.68,0,0,0-.53-1.81,1.94,1.94,0,0,0-1.53-.6,2.38,2.38,0,0,0-1.79.69,2.88,2.88,0,0,0-.66,2.06v5h-2.95V107.63h2.95v4.93a3.75,3.75,0,0,1,1.42-.9,5.12,5.12,0,0,1,1.82-.32A4.2,4.2,0,0,1,438.44,112.48Z"></path><path d="M449.6,121.17a5,5,0,0,1-2-1.87,5.46,5.46,0,0,1,0-5.42,5,5,0,0,1,2-1.86,6.46,6.46,0,0,1,5.77,0,5,5,0,0,1,2,1.86,5.46,5.46,0,0,1,0,5.42,5,5,0,0,1-2,1.87,6.55,6.55,0,0,1-5.77,0Zm4.75-2.52a2.87,2.87,0,0,0,.73-2.06,2.83,2.83,0,0,0-.73-2,2.41,2.41,0,0,0-1.86-.77,2.47,2.47,0,0,0-1.88.77,2.83,2.83,0,0,0-.74,2,2.87,2.87,0,0,0,.74,2.06,2.49,2.49,0,0,0,1.88.76A2.44,2.44,0,0,0,454.35,118.65Z"></path><path d="M469.3,112.48a4.49,4.49,0,0,1,1.17,3.37v5.84h-3v-5.38a2.68,2.68,0,0,0-.53-1.81,1.92,1.92,0,0,0-1.53-.6,2.34,2.34,0,0,0-1.78.69,2.84,2.84,0,0,0-.67,2.06v5h-2.95V107.63H463v4.93a3.75,3.75,0,0,1,1.42-.9,5.16,5.16,0,0,1,1.82-.32A4.17,4.17,0,0,1,469.3,112.48Z"></path><path d="M370.94,182.07h7.64a1.13,1.13,0,0,1,.9,1.8l-3.59,4.82a1.13,1.13,0,0,1-1.77.05l-4-4.82A1.13,1.13,0,0,1,370.94,182.07Z" style="fill:#e0e0e0"></path><path d="M295.06,116.41a2.68,2.68,0,1,1,.68-3.73A2.67,2.67,0,0,1,295.06,116.41Z" style="fill:#E85456"></path><path d="M295.57,115.58c-.24-.08.52-2.82,2.13-5.89s3-5.46,3.18-5.37-.76,2.75-2.35,5.79S295.82,115.67,295.57,115.58Z" style="fill:#E85456"></path><path d="M307.7,109.71c0,.22-2.25.19-4.52-1.3a6.26,6.26,0,0,1-2.29-2.52c-.38-.83-.29-1.42-.18-1.43s.28.47.75,1.1a8.48,8.48,0,0,0,2.24,2.08C305.73,109,307.76,109.43,307.7,109.71Z" style="fill:#E85456"></path><path d="M301.87,121.8a2.68,2.68,0,1,1,.68-3.73A2.67,2.67,0,0,1,301.87,121.8Z" style="fill:#E85456"></path><path d="M302.39,121c-.25-.08.52-2.83,2.12-5.9s3-5.46,3.19-5.37-.77,2.75-2.36,5.79S302.63,121.06,302.39,121Z" style="fill:#E85456"></path><path d="M306.93,111.38c0,.24-2.12.35-4.3-1s-3.09-3.25-2.87-3.34,1.38,1.38,3.35,2.54S307,111.1,306.93,111.38Z" style="fill:#E85456"></path><path d="M510.86,41.22s-.2.23-.64.68l-1.93,2-7.58,7.59,0,0h-.05l-112.77.15-113-.15h-.05l0,0-7.36-7.59-1.87-2c-.42-.44-.62-.67-.62-.67s.23.2.66.63,1.09,1.08,1.92,1.92l7.45,7.51-.09,0,113-.14,112.77.14-.08,0,7.66-7.51,2-1.92C510.63,41.42,510.86,41.22,510.86,41.22Z" style="fill:#263238"></path><path d="M510.86,212.4l-.72-.6L508,210l-8.12-7.09.08,0-112.57.15-112.87-.15.08,0-7.43,7.52-1.92,1.91c-.43.43-.66.64-.66.64s.2-.24.61-.68l1.88-2,7.35-7.59,0,0h.06l112.87-.15,112.57.15h.05l0,0,8.05,7.18,2.05,1.85C510.64,212.17,510.86,212.4,510.86,212.4Z" style="fill:#263238"></path></g><g id="freepik--musical-notes--inject-33"><path d="M639,105a4.55,4.55,0,1,1-.76-6.39A4.55,4.55,0,0,1,639,105Z" style="fill:#263238"></path><path d="M639.41,103.42c-.28,0-.28-4.8.78-10.56s2-10.36,2.2-10.34-.15,4.78-1.21,10.51S639.68,103.43,639.41,103.42Z" style="fill:#263238"></path><path d="M652.08,83.76c.15.22-2.08,1.49-5.1,1.19s-5-1.92-4.8-2.11,2.16.89,4.89,1.11S652,83.48,652.08,83.76Z" style="fill:#263238"></path><path d="M651,88.35c.17.21-2,1.56-4.92,1.06s-4.55-2.44-4.32-2.58,1.9,1.2,4.48,1.6S650.88,88.08,651,88.35Z" style="fill:#263238"></path><path d="M179.2,47.27a4.55,4.55,0,1,1-.77-6.39A4.56,4.56,0,0,1,179.2,47.27Z" style="fill:#263238"></path><path d="M179.62,45.67c-.28,0-.28-4.8.78-10.56s1.95-10.36,2.2-10.34-.16,4.78-1.22,10.51S179.89,45.68,179.62,45.67Z" style="fill:#263238"></path><path d="M192.29,26c.14.22-2.08,1.49-5.1,1.19s-5-1.92-4.8-2.11,2.16.89,4.89,1.12S192.18,25.74,192.29,26Z" style="fill:#263238"></path><path d="M191.2,30.6c.17.21-2,1.57-4.93,1.07s-4.55-2.45-4.32-2.59,1.9,1.2,4.49,1.6S191.08,30.33,191.2,30.6Z" style="fill:#263238"></path><path d="M152,98.78a4.28,4.28,0,1,1,1.08-6A4.27,4.27,0,0,1,152,98.78Z" style="fill:#263238"></path><path d="M152.86,97.46c-.39-.12.83-4.49,3.38-9.39s4.73-8.71,5.09-8.56-1.23,4.38-3.76,9.23S153.25,97.59,152.86,97.46Z" style="fill:#263238"></path><path d="M172.19,88.1c0,.35-3.58.31-7.2-2.07a10.07,10.07,0,0,1-3.66-4c-.61-1.32-.46-2.27-.28-2.27s.45.75,1.19,1.75a13.85,13.85,0,0,0,3.57,3.31C169.05,86.94,172.29,87.65,172.19,88.1Z" style="fill:#263238"></path><path d="M162.9,107.38a4.27,4.27,0,1,1,1.09-5.95A4.27,4.27,0,0,1,162.9,107.38Z" style="fill:#263238"></path><path d="M163.72,106.06c-.39-.13.84-4.5,3.39-9.4s4.73-8.7,5.08-8.56-1.22,4.38-3.76,9.23S164.11,106.19,163.72,106.06Z" style="fill:#263238"></path><path d="M171,90.76c0,.38-3.39.56-6.85-1.54s-4.93-5.18-4.58-5.33,2.2,2.2,5.34,4S171,90.32,171,90.76Z" style="fill:#263238"></path><path d="M595.89,55.27a3.81,3.81,0,1,1,.28-5.38A3.81,3.81,0,0,1,595.89,55.27Z" style="fill:#263238"></path><path d="M596.46,54c-.36-.07.23-4.07,1.92-8.68s3.19-8.22,3.52-8.14-.58,4-2.27,8.58S596.82,54.08,596.46,54Z" style="fill:#263238"></path><path d="M612.47,43.55c0,.31-3.13.67-6.59-1a9,9,0,0,1-3.69-3.14c-.69-1.09-.66-1.95-.51-2s.48.61,1.26,1.41a12,12,0,0,0,3.53,2.51C609.56,42.88,612.51,43.13,612.47,43.55Z" style="fill:#263238"></path><path d="M606.46,61.62a3.81,3.81,0,1,1,.28-5.37A3.81,3.81,0,0,1,606.46,61.62Z" style="fill:#263238"></path><path d="M607,60.36c-.36-.06.23-4.06,1.92-8.68s3.19-8.22,3.52-8.13-.58,4-2.27,8.57S607.39,60.43,607,60.36Z" style="fill:#263238"></path><path d="M611.69,46c.07.34-2.92.88-6.22-.58s-4.94-4-4.65-4.19,2.2,1.7,5.18,3S611.68,45.64,611.69,46Z" style="fill:#263238"></path><path d="M238.84,57.53A4.77,4.77,0,1,0,237.29,51,4.77,4.77,0,0,0,238.84,57.53Z" style="fill:#263238"></path><path d="M237.86,56.11c.43-.16-1.19-5-4.32-10.28s-5.77-9.42-6.15-9.23,1.61,4.81,4.72,10.06S237.43,56.27,237.86,56.11Z" style="fill:#263238"></path><path d="M215.78,46.8c0,.38,4,.13,7.9-2.73a11.09,11.09,0,0,0,3.84-4.69c.61-1.5.38-2.55.19-2.54s-.46.85-1.23,2a15.34,15.34,0,0,1-3.79,3.9C219.21,45.32,215.64,46.29,215.78,46.8Z" style="fill:#263238"></path><path d="M227.24,67.73a4.77,4.77,0,1,0-1.55-6.56A4.76,4.76,0,0,0,227.24,67.73Z" style="fill:#263238"></path><path d="M226.25,66.31c.43-.16-1.19-5-4.31-10.28s-5.77-9.41-6.16-9.23,1.61,4.81,4.72,10.06S225.83,66.48,226.25,66.31Z" style="fill:#263238"></path><path d="M217.3,49.68c0,.43,3.8.44,7.54-2.11s5.19-6,4.79-6.2-2.32,2.59-5.72,4.83S217.22,49.2,217.3,49.68Z" style="fill:#263238"></path><path d="M553.07,76.34a5.5,5.5,0,1,1-4.88-6.07A5.49,5.49,0,0,1,553.07,76.34Z" style="fill:#263238"></path><path d="M552.47,74.43c-.28.17-3.36-4.75-6-11.34s-4.65-11.88-4.38-12,2.91,5,5.5,11.56S552.76,74.26,552.47,74.43Z" style="fill:#263238"></path><path d="M552.85,46.11c.29.13-1.18,2.87-4.47,4.5s-6.35,1.23-6.28.92,2.78-.48,5.73-2S552.56,45.9,552.85,46.11Z" style="fill:#263238"></path><path d="M554.68,51.52c.3.11-1,2.89-4.37,4.26s-6.24.42-6.1.12,2.73,0,5.63-1.24S554.39,51.32,554.68,51.52Z" style="fill:#263238"></path></g><g id="freepik--character-2--inject-33"><path d="M598,114.56c3.72-2.27,10.52.22,11.57,2.74a5.51,5.51,0,0,1,6.26,4.33l6.91,3.78a8,8,0,0,1,3.13,2.46,2.75,2.75,0,0,1-.39,3.63,4.18,4.18,0,0,1-.18,6.91,2.92,2.92,0,0,1-1.6,3.93,29.32,29.32,0,0,1,2.35,9.61,5.9,5.9,0,0,1-.77,4c-.83,1.12-2.72,1.5-3.57.4a3.41,3.41,0,0,1-.88,3.58c1.24.4,1,2.44-.08,3.1s-2.54.34-3.78-.05a6.26,6.26,0,0,0-3.81-.45,1.19,1.19,0,0,0,.17.92,5.34,5.34,0,0,1-.9,7.33l-.58.45c-1,.82-3.09,1.23-4.37,1.49-3.25.65-4.85-.12-8.14-.59.26,2.28-6.17,5.29-10.74-.85a117.68,117.68,0,0,1-33.5-5.06c-1.73-.5-3.74-1.34-4-3.11a4.46,4.46,0,0,1-3.57-2.45,13.1,13.1,0,0,1-1.25-4.33,7.83,7.83,0,0,1-3.44-8.36,9.7,9.7,0,0,1-1.57-7.64,5.7,5.7,0,0,1-1-8.29,34.32,34.32,0,0,1,6.58-9.14c-1.86-1-1.82-3.89-.47-5.51s3.51-2.29,5.54-2.87c-1.6,0-2.34-2.28-1.55-3.67s2.43-2,4-2.43a29,29,0,0,1,6.94-.94c1.46-2.4,5.66-4.4,8.44-4.84,11.21-1.78,18.45-.94,28.31,11.92" style="fill:#263238"></path><path d="M565.12,125.31c2.77-6.55,10.08-13.21,16.51-10.17l19,12.56a4.16,4.16,0,0,1,2.12,5.21l-18.25,43.77c-2.13,5.79-6.12,9.9-12.21,9h0a13,13,0,0,1-10.47-16.57c.94-3.11,1.64-5.45,1.63-5.43s-8.06-4.42-5.92-16.2C558.58,141.59,562.05,132.59,565.12,125.31Z" style="fill:#bf654e"></path><path d="M569.09,136.94c0-.27-1.46-.24-2.79-1.2s-1.82-2.31-2.08-2.25-.17.42,0,1a4.16,4.16,0,0,0,1.52,2,4,4,0,0,0,2.37.75C568.77,137.26,569.12,137.07,569.09,136.94Z" style="fill:#263238"></path><path d="M584,141.45c-.14-.23-1.46.31-3-.09s-2.55-1.48-2.77-1.33,0,.46.41.95a4.26,4.26,0,0,0,2.15,1.31,4,4,0,0,0,2.48-.17C583.84,141.87,584.09,141.56,584,141.45Z" style="fill:#263238"></path><path d="M570.89,145.79a11.27,11.27,0,0,0-2.35-1.33c-.37-.17-.72-.38-.69-.67a2.14,2.14,0,0,1,.67-1.08l2.21-2.59c3.11-3.7,5.51-6.79,5.36-6.92s-2.79,2.78-5.9,6.48L568,142.3a2.4,2.4,0,0,0-.75,1.47,1.05,1.05,0,0,0,.45.8,2.56,2.56,0,0,0,.63.33A10.42,10.42,0,0,0,570.89,145.79Z" style="fill:#263238"></path><path d="M563.44,163.65a30.1,30.1,0,0,0,16.35,1.24s-6.31,6.4-17.12,1.45Z" style="fill:#7f473d"></path><path d="M588.36,135.22c.17-.44-1.21-1.35-2.5-2.77s-2.14-2.83-2.59-2.7c-.21.07-.28.56-.09,1.3a6.21,6.21,0,0,0,1.46,2.53,6.29,6.29,0,0,0,2.42,1.63C587.78,135.46,588.27,135.42,588.36,135.22Z" style="fill:#263238"></path><path d="M567.84,125.62c.14.45,1.33.46,2.62.89s2.27,1.06,2.65.78c.17-.14.12-.55-.24-1.05a4,4,0,0,0-4.24-1.34C568.05,125.1,567.78,125.41,567.84,125.62Z" style="fill:#263238"></path><path d="M558.4,129.22a8.13,8.13,0,0,1,3.34-4.31,28.87,28.87,0,0,0,2.71-1.4c1.78-1.29,2.29-3.66,3.45-5.53a8.9,8.9,0,0,1,7-4.16c2.35-.12,4.73.7,7,.25,1.7-.34,3.23-1.36,5-1.6,3.36-.46,6.33,2.09,8.62,4.59-.12,2.38-2.1,3.87-4,5.31a8.28,8.28,0,0,1-6.78,1.42c-1.8-.43-3.74-1.45-5.36-.56s-1.9,3.42-3.44,4.62c-2.19,1.71-5.43-.16-8.14.49-2.08.5-3.47,2.4-4.92,4s-3.57,3.05-5.6,2.34A24.43,24.43,0,0,1,558.4,129.22Z" style="fill:#263238"></path><path d="M589.91,119.76a42.14,42.14,0,0,1,14.34,7.29,7.73,7.73,0,0,1,3,3.7,7.48,7.48,0,0,1-.4,4.17c-1.32,4.22-4.59,8.9-7.38,12.33l-6.25,1.58c-3.79-2.19.2-8.67,1.46-12.14a8.69,8.69,0,0,1-2.65-8.82A9.64,9.64,0,0,1,589.91,119.76Z" style="fill:#263238"></path><path d="M593.71,147.32c.89-2.37,4-1.95,5.72-.07.93,1,1.39,2.65.47,5.17-2.46,6.75-8.73,2.89-8.67,2.69S592.67,150.11,593.71,147.32Z" style="fill:#bf654e"></path><path d="M594.22,153.31s.09.12.26.29a1.21,1.21,0,0,0,.87.33c.81,0,1.82-.91,2.29-2.11a4.19,4.19,0,0,0,.29-1.81,1.44,1.44,0,0,0-.56-1.22.64.64,0,0,0-.81.07c-.16.15-.16.31-.2.3s-.11-.16,0-.42a.86.86,0,0,1,.42-.33.94.94,0,0,1,.71.07,1.75,1.75,0,0,1,.85,1.49,4.3,4.3,0,0,1-.28,2c-.54,1.34-1.7,2.36-2.78,2.29a1.36,1.36,0,0,1-1-.57C594.18,153.48,594.19,153.31,594.22,153.31Z" style="fill:#7f473d"></path><path d="M596.3,158.63a6.6,6.6,0,0,0,1.12.26,4.12,4.12,0,0,0,1.31,0l-.07-.06a3.64,3.64,0,0,0,1.07,3,3.6,3.6,0,0,0,3.71.76l-.11-.05a1.51,1.51,0,0,0,.72.87,2,2,0,0,0,1.14.24,1.86,1.86,0,0,0,1.11-.46,2.38,2.38,0,0,0,.69-1,3.7,3.7,0,0,0,0-2.52,11.31,11.31,0,0,0-1.28-2.3l-.06.15a2.48,2.48,0,0,0,1.57-1.3,3.62,3.62,0,0,0,.42-2.08,5.69,5.69,0,0,0-.69-2.07,17,17,0,0,0-1.21-1.87l0,.16a2.68,2.68,0,0,0,1.27-1.79,3.84,3.84,0,0,0-.16-2.27,9.56,9.56,0,0,0-2.64-3.34l0,.13a4.77,4.77,0,0,0-3.26-7.12l.07.15a4.12,4.12,0,0,0,.08-3.62,4.06,4.06,0,0,0-2.48-2.29l.06.11a4,4,0,0,0-.65-3.46,4,4,0,0,0-2.63-1.66l.06.09a3.92,3.92,0,0,0,0-1.93,5.3,5.3,0,0,0-.66-1.57,4.13,4.13,0,0,0-2.05-1.72l-.25-.09a2.27,2.27,0,0,0-.25-.06,3.88,3.88,0,0,0-.45-.08,5.8,5.8,0,0,0-.71,0l-.43,0-.15,0h.15l.43,0a4.62,4.62,0,0,1,.71,0,4.31,4.31,0,0,1,.44.09l.24.06.25.09a4.12,4.12,0,0,1,2,1.71,5.09,5.09,0,0,1,.64,1.54,3.9,3.9,0,0,1,0,1.86l0,.08h.08a4,4,0,0,1,3.13,4.93l0,.08.08,0a4.08,4.08,0,0,1,2.27,5.64l-.07.13.14,0A4.55,4.55,0,0,1,604,143l-.05.08.07.05a9.59,9.59,0,0,1,2.59,3.27,3.73,3.73,0,0,1,.15,2.14,2.46,2.46,0,0,1-1.17,1.65l-.11.06.08.1a8.45,8.45,0,0,1,1.86,3.83,3.39,3.39,0,0,1-.39,2,2.36,2.36,0,0,1-1.44,1.21l-.14,0,.08.12a10.78,10.78,0,0,1,1.26,2.26,3.43,3.43,0,0,1,.07,2.38,1.93,1.93,0,0,1-1.64,1.37,1.57,1.57,0,0,1-1.69-1l0-.09-.09,0a3.46,3.46,0,0,1-3.55-.72,3.5,3.5,0,0,1-1.05-2.92v-.08l-.08,0a4.23,4.23,0,0,1-1.28,0,6,6,0,0,1-1.11-.24,4.2,4.2,0,0,1-1.57-.83,1.67,1.67,0,0,1-.6-.91,3.41,3.41,0,0,1,0-.38s0,0,0,.1a1.55,1.55,0,0,0,0,.29,1.69,1.69,0,0,0,.58.95" style="fill:#455a64"></path><path d="M622.48,156.93a2.11,2.11,0,0,0,.38-.33,3.69,3.69,0,0,0,.77-1.25,3.61,3.61,0,0,0,.09-2.33,3.81,3.81,0,0,0-2-2.33l0,.1a4.89,4.89,0,0,0,.4-3.57,4.72,4.72,0,0,0-.92-1.83,11.16,11.16,0,0,0-1.61-1.45,4.08,4.08,0,0,1-.74-.81,2.4,2.4,0,0,1-.37-1c-.11-.75,0-1.56-.14-2.38a4.38,4.38,0,0,0-3.56-3.33l.08.15a5.73,5.73,0,0,0-4.22-8.06l.08.14a5.13,5.13,0,0,0-1.12-5.56,5.19,5.19,0,0,0-5-1.21l.11.05a7,7,0,0,0-2-2.19,10.2,10.2,0,0,0-2.29-1.3,12,12,0,0,0-4.16-1,8.26,8.26,0,0,0-2.72.28,4.36,4.36,0,0,0-.68.23l-.22.1s.31-.12.92-.28a8.64,8.64,0,0,1,2.7-.23,12.27,12.27,0,0,1,4.1,1,10.79,10.79,0,0,1,2.25,1.3,7,7,0,0,1,1.9,2.14l0,.07.07,0a4.85,4.85,0,0,1,5.91,6.51l-.06.13.14,0a5.54,5.54,0,0,1,4.06,7.76l-.06.13.14,0a4.18,4.18,0,0,1,3.39,3.16c.16.78,0,1.58.14,2.37a2.76,2.76,0,0,0,.41,1.11,4.18,4.18,0,0,0,.78.84,11.06,11.06,0,0,1,1.59,1.42,4.52,4.52,0,0,1,.89,1.76,4.71,4.71,0,0,1-.36,3.46l0,.07.07,0a3.7,3.7,0,0,1,2,2.24,3.5,3.5,0,0,1-.05,2.26,3.72,3.72,0,0,1-.73,1.25C622.61,156.82,622.47,156.92,622.48,156.93Z" style="fill:#455a64"></path><path d="M546.12,124.45l.11-.11.31-.33,1.15-1.27c.5-.55,1.09-1.26,1.86-2a6.35,6.35,0,0,1,3-1.77c.64-.14,1.34-.14,2.07-.24a4.47,4.47,0,0,0,1.11-.26,2.51,2.51,0,0,0,1-.69c.54-.61.79-1.42,1.27-2.08A2.08,2.08,0,0,1,559,115a4,4,0,0,1,1.26-.18,6.93,6.93,0,0,0,1.35-.1,2.27,2.27,0,0,0,1.23-.69,10.8,10.8,0,0,0,1.39-2.48,3.6,3.6,0,0,1,.83-1.13,1.86,1.86,0,0,1,1.31-.39c1,.09,1.83.69,2.89.84a2.56,2.56,0,0,0,1.53-.31,6.89,6.89,0,0,0,1.21-.92,11.05,11.05,0,0,1,1.11-1,2.8,2.8,0,0,1,1.26-.56,4.2,4.2,0,0,1,2.59.8,6.34,6.34,0,0,0,2.54,1,7.57,7.57,0,0,0,2.58-.35,12.39,12.39,0,0,1,2.36-.52,7.47,7.47,0,0,1,4.11,1.09,8,8,0,0,1,2.55,2.47,8.93,8.93,0,0,1,1.08,2.47,9.59,9.59,0,0,1,.26,1.69c0,.18,0,.33,0,.44s0,.15,0,.15v-.15c0-.11,0-.26,0-.45a9.31,9.31,0,0,0-.23-1.7,8.75,8.75,0,0,0-1.06-2.52,7.87,7.87,0,0,0-2.57-2.53,7.56,7.56,0,0,0-4.2-1.14,12.85,12.85,0,0,0-2.4.51,7.06,7.06,0,0,1-2.51.34,6.17,6.17,0,0,1-2.46-1,7.8,7.8,0,0,0-1.26-.63,2.73,2.73,0,0,0-2.82.4,14.83,14.83,0,0,0-1.13,1,5.93,5.93,0,0,1-1.17.89,2.26,2.26,0,0,1-1.4.28c-1-.13-1.85-.73-2.9-.83a2,2,0,0,0-1.45.44,3.54,3.54,0,0,0-.89,1.19,10.23,10.23,0,0,1-1.35,2.44,2.07,2.07,0,0,1-1.12.63,6.42,6.42,0,0,1-1.32.1,4.27,4.27,0,0,0-1.32.2,2.23,2.23,0,0,0-1,.81c-.5.7-.74,1.5-1.25,2.07a2.91,2.91,0,0,1-2,.91c-.71.09-1.42.1-2.09.25a6.48,6.48,0,0,0-3.09,1.83c-.76.75-1.34,1.46-1.83,2s-.86,1-1.13,1.3l-.29.35A1,1,0,0,0,546.12,124.45Z" style="fill:#455a64"></path><path d="M555.59,119.46l-.12-.06a.9.9,0,0,0-.39,0,1.55,1.55,0,0,0-1.05,1,3.54,3.54,0,0,0-.16,1.07,4.59,4.59,0,0,1-.18,1.24,2.88,2.88,0,0,1-.87,1.13c-.39.33-.85.63-1.27,1a2.06,2.06,0,0,0-.69,1.68c0,.65.32,1.27.35,1.93a2.68,2.68,0,0,1-.75,1.83c-.46.55-1,1-1.5,1.66a3.19,3.19,0,0,0-.55,1,2.74,2.74,0,0,0-.08,1.21,13.83,13.83,0,0,0,.71,2.35,3.29,3.29,0,0,1,.08,2.39,10.83,10.83,0,0,1-1.53,2.07,3.59,3.59,0,0,0-.63,1.19,2.85,2.85,0,0,0-.05,1.33,10.27,10.27,0,0,0,.9,2.38,5.88,5.88,0,0,1,.61,2.31,16.78,16.78,0,0,0,.07,2.35,2.69,2.69,0,0,0,.44,1.08,3.31,3.31,0,0,0,.83.76,6.88,6.88,0,0,1,.85.62,3.37,3.37,0,0,1,.63.78,7.23,7.23,0,0,1,.68,1.81c.17.6.31,1.19.5,1.74a4.93,4.93,0,0,0,1.86,2.48,5.32,5.32,0,0,0,2.18.89,4.61,4.61,0,0,0,1.49,0,3.56,3.56,0,0,0,.51-.12,5.37,5.37,0,0,1-2,0,5.24,5.24,0,0,1-2.13-.91,4.81,4.81,0,0,1-1.78-2.43c-.19-.54-.33-1.13-.48-1.74a7.58,7.58,0,0,0-.69-1.85,3.76,3.76,0,0,0-.67-.83,9.13,9.13,0,0,0-.86-.64,3.16,3.16,0,0,1-.78-.72,2.32,2.32,0,0,1-.4-1,17.6,17.6,0,0,1-.06-2.32,5.89,5.89,0,0,0-.63-2.38,11,11,0,0,1-.88-2.34,2.74,2.74,0,0,1,0-1.24,3.41,3.41,0,0,1,.59-1.11,10.87,10.87,0,0,0,1.56-2.11,2.78,2.78,0,0,0,.2-1.3,5.26,5.26,0,0,0-.27-1.25,13.05,13.05,0,0,1-.72-2.31,2.86,2.86,0,0,1,.07-1.13,3.3,3.3,0,0,1,.52-1c.46-.6,1-1.09,1.48-1.66a2.85,2.85,0,0,0,.79-2c0-.71-.32-1.32-.36-1.93a1.89,1.89,0,0,1,.63-1.56c.4-.4.86-.7,1.25-1a2.75,2.75,0,0,0,.89-1.19,4.54,4.54,0,0,0,.17-1.27,4.11,4.11,0,0,1,.14-1,1.52,1.52,0,0,1,1-1A.94.94,0,0,1,555.59,119.46Z" style="fill:#455a64"></path><path d="M622.37,156.66a3.72,3.72,0,0,0,.56.11,4,4,0,0,0,1.64-.19,3.84,3.84,0,0,0,2-1.59,4,4,0,0,0,.42-3.4,10,10,0,0,0-.95-1.83,4.89,4.89,0,0,1-.79-2,3.24,3.24,0,0,1,.76-2.15c.49-.65,1.11-1.25,1.61-2a7,7,0,0,0-2.49-10.1l0,.18a3.56,3.56,0,0,0,1-1.32,4.34,4.34,0,0,0,.39-1.66,5,5,0,0,0-.23-1.72,6.06,6.06,0,0,0-.8-1.56,11.2,11.2,0,0,0-4-3.19,16.79,16.79,0,0,0-4.55-1.59l.08.13a5.06,5.06,0,0,0-3.75-6.24,8.39,8.39,0,0,0-2.44-.09,4.71,4.71,0,0,1-1.13-.07,3,3,0,0,1-1-.42,8.88,8.88,0,0,1-1.55-1.44,7.62,7.62,0,0,0-1.49-1.31,6.22,6.22,0,0,0-1.67-.76,6,6,0,0,0-3.08-.08,6,6,0,0,0-3.19,1.91,4.34,4.34,0,0,0-.3.39s.11-.13.33-.37a6,6,0,0,1,1.09-.93,6.17,6.17,0,0,1,2.09-.9,6,6,0,0,1,3,.11,6.37,6.37,0,0,1,1.62.75,8,8,0,0,1,1.46,1.3,8.86,8.86,0,0,0,1.57,1.47,3.14,3.14,0,0,0,1.06.45,5.08,5.08,0,0,0,1.17.08,8.64,8.64,0,0,1,2.38.09,4.9,4.9,0,0,1,3.6,6l0,.11.11,0a16.06,16.06,0,0,1,4.49,1.58,10.87,10.87,0,0,1,3.89,3.12,5.47,5.47,0,0,1,.77,1.5,4.82,4.82,0,0,1,.23,1.64,4.46,4.46,0,0,1-.37,1.58,3.42,3.42,0,0,1-1,1.24l-.14.1.15.08a6.84,6.84,0,0,1,2.43,9.81c-.48.72-1.09,1.32-1.59,2a3.33,3.33,0,0,0-.78,2.27,5,5,0,0,0,.82,2.08,10,10,0,0,1,.95,1.79,3.93,3.93,0,0,1-.38,3.31,3.76,3.76,0,0,1-2,1.57,4.15,4.15,0,0,1-1.6.22C622.57,156.7,622.38,156.65,622.37,156.66Z" style="fill:#263238"></path><path d="M554.59,114l.06-.12.15-.38c.14-.34.34-.82.58-1.44s.59-1.38,1-2.23a13.86,13.86,0,0,1,1.8-2.69,9.08,9.08,0,0,1,3.09-2.34,6.59,6.59,0,0,1,2.09-.56,18.1,18.1,0,0,1,2.32,0,6.46,6.46,0,0,0,2.45-.31,10.41,10.41,0,0,0,2.28-1.21c.72-.48,1.43-1,2.21-1.44a7.17,7.17,0,0,1,2.52-.9,13,13,0,0,1,5.28.43,33.4,33.4,0,0,1,4.71,1.64,25.5,25.5,0,0,1,7.11,4.5,18.08,18.08,0,0,1,3.55,4.43c.16.29.32.55.43.78l.27.6c.08.15.13.27.18.37l.06.12a.93.93,0,0,0,0-.13l-.16-.38-.25-.61c-.11-.23-.26-.49-.41-.79a17.56,17.56,0,0,0-3.53-4.5,25.42,25.42,0,0,0-7.13-4.58,33.83,33.83,0,0,0-4.74-1.65,13,13,0,0,0-5.37-.45,7.58,7.58,0,0,0-2.59.93c-.79.44-1.5,1-2.22,1.45a10,10,0,0,1-2.23,1.19,6.23,6.23,0,0,1-2.38.31,20.34,20.34,0,0,0-2.34,0,7.12,7.12,0,0,0-2.14.58,9.25,9.25,0,0,0-3.14,2.41,14,14,0,0,0-1.79,2.74,23.82,23.82,0,0,0-1,2.25c-.25.63-.43,1.12-.55,1.46-.06.15-.1.28-.13.38A.93.93,0,0,0,554.59,114Z" style="fill:#263238"></path><path d="M599.94,121.6c5,6,5.36,8.27,4.31,16.13a16.86,16.86,0,0,1-4.64,9.83c-.88-.61-1.79-1.19-2.73-1.76,0,0,5.17-6.57,3.51-14.33-1.88-8.84-10.48-11.71-10.48-11.71-.76-2-1-3.4-2.45-4.65C587.46,115.11,595.54,116.3,599.94,121.6Z" style="fill:#E85456"></path><path d="M566.23,116s-2.72.93-5.66,7.11c-4.94,10.4-1.53,18.1-1.53,18.1l8.9-21.37Z" style="fill:#E85456"></path><path d="M590.27,120.5c-.75-2.92-2.25-5.85-5.11-6.82a7.76,7.76,0,0,0-8.22,2.28,7.22,7.22,0,0,0-12.32,6.74,6.65,6.65,0,0,0-6.21,6.3c0,1,.19,2,.24,3a4.15,4.15,0,0,1-.72,2.84,2,2,0,0,1-2.66.52,4.59,4.59,0,0,0,5.24,2.74l2.39-5.76s3.06-3.44,4.92-4,6.08,2,9.18-1.27,1.53-4.75,4.65-4S591.49,125.27,590.27,120.5Z" style="fill:#263238"></path><path d="M590.27,120.5a3.63,3.63,0,0,1,.15.64A2.25,2.25,0,0,1,590,123a3.63,3.63,0,0,1-2.82,1,17.89,17.89,0,0,1-4-.42c-.74-.13-1.52-.35-2.31-.47a1.3,1.3,0,0,0-1.06.16,4.81,4.81,0,0,0-.61,1.09,10.71,10.71,0,0,1-1.57,2.37,6,6,0,0,1-2.44,1.88,7.11,7.11,0,0,1-3.25.37c-1.1-.09-2.21-.38-3.31-.45a2.55,2.55,0,0,0-1.51.44,11.08,11.08,0,0,0-1.4,1,28.09,28.09,0,0,0-2.6,2.53l0-.07-2.38,5.76-.06.13-.13,0a4.89,4.89,0,0,1-5.58-2.91l-.36-1,.8.63a1.62,1.62,0,0,0,1.78,0,2.53,2.53,0,0,0,1.06-1.71,12.55,12.55,0,0,0-.13-3.55,6.54,6.54,0,0,1,.71-3.62,6.94,6.94,0,0,1,5.76-3.76l-.26.34a7.46,7.46,0,0,1,12.75-7h-.33a8,8,0,0,1,6.86-2.65,6.61,6.61,0,0,1,2.93,1,7.08,7.08,0,0,1,1.86,1.84,11.53,11.53,0,0,1,1.55,3.24q.16.58.24.9a1.52,1.52,0,0,1,0,.31s-.14-.41-.41-1.17a12.45,12.45,0,0,0-1.63-3.14,6.33,6.33,0,0,0-4.63-2.67,7.6,7.6,0,0,0-6.49,2.58l-.16.19-.17-.18a7.23,7.23,0,0,0-8-1.71,7.15,7.15,0,0,0-3.93,8.23l.09.33h-.35a6.42,6.42,0,0,0-5.27,3.49,5.84,5.84,0,0,0-.64,3.3,13.42,13.42,0,0,1,.12,3.71,3,3,0,0,1-1.33,2.08,2.16,2.16,0,0,1-2.41,0l.43-.32a4.34,4.34,0,0,0,4.91,2.57l-.19.16,2.41-5.75v0l0,0a26.87,26.87,0,0,1,2.66-2.58,11.75,11.75,0,0,1,1.48-1.06,5,5,0,0,1,.85-.39,3.06,3.06,0,0,1,.94-.11c1.2.09,2.27.38,3.34.47a6.64,6.64,0,0,0,3-.32,5.51,5.51,0,0,0,2.28-1.73,10.11,10.11,0,0,0,1.54-2.27,4.93,4.93,0,0,1,.71-1.19,1.62,1.62,0,0,1,1.37-.24c.84.14,1.59.36,2.33.51a18.26,18.26,0,0,0,4,.48,3.5,3.5,0,0,0,2.69-.87,2.23,2.23,0,0,0,.44-1.7A5,5,0,0,1,590.27,120.5Z" style="fill:#455a64"></path><path d="M576,151.07c-.07-.6-.14-1.21-.2-1.81a.72.72,0,0,0-.14-.41c-.15-.16-.41-.13-.63-.1l-4.24.73-.8.13a6,6,0,0,0,.75,3.32A3,3,0,0,0,573.4,154a2.18,2.18,0,0,0,2.31-1.52A2.91,2.91,0,0,0,576,151.07Z" style="fill:#7f473d"></path><path d="M570.75,153.33a7.08,7.08,0,0,0,2.08.52,2.8,2.8,0,0,0,1-.16,4.74,4.74,0,0,0,1.06-.57,1.78,1.78,0,0,0,.68-1,5.11,5.11,0,0,0,.06-1.42c0-.26,0-.5-.09-.75a2.62,2.62,0,0,0-.14-.62.39.39,0,0,0-.37-.17l-.69.09-2.38.29a8.82,8.82,0,0,1-2.21.12,9.85,9.85,0,0,1,2.16-.5l2.36-.39.68-.11a.88.88,0,0,1,.88.38,2.38,2.38,0,0,1,.23.83c0,.25.08.51.1.78a5.08,5.08,0,0,1-.09,1.6,2.14,2.14,0,0,1-.89,1.27,4.76,4.76,0,0,1-1.2.59,3.12,3.12,0,0,1-1.18.13A2.93,2.93,0,0,1,570.75,153.33Z" style="fill:#263238"></path><path d="M552.66,169.92h10.67l20.5,4.57,7.4,4.89s-13.93,11.15-21.3,9.45S555.35,181.08,552.66,169.92Z" style="fill:#bf654e"></path><polygon points="569.48 455.64 569.11 446.3 552.83 445.69 553.08 457.12 559 460.69 569.48 455.64" style="fill:#bf654e"></polygon><path d="M552.72,455v1.07s-18.08,7.47-18.24,10.91l36-.53-.66-12A20.61,20.61,0,0,1,552.72,455Z" style="fill:#455a64"></path><g style="opacity:0.6000000000000001"><path d="M566.27,458.35a1.46,1.46,0,0,1,1,1.66,1.41,1.41,0,0,1-1.64,1.05,1.55,1.55,0,0,1-1.1-1.77,1.47,1.47,0,0,1,1.83-.9" style="fill:#fff"></path></g><g style="opacity:0.6000000000000001"><path d="M570.52,466.44l-.16-2.88-34.47,1.56s-1.59.72-1.4,1.85Z" style="fill:#fff"></path></g><path d="M552.61,456.17c0,.17.89.24,1.76.79s1.35,1.29,1.51,1.22-.12-1.09-1.19-1.74S552.57,456,552.61,456.17Z" style="fill:#263238"></path><path d="M548.85,457.79c0,.17.73.46,1.34,1.19s.79,1.52,1,1.51.28-1-.5-1.91S548.85,457.62,548.85,457.79Z" style="fill:#263238"></path><path d="M546.77,462.34c.16,0,.39-.85-.07-1.8s-1.3-1.33-1.37-1.18.44.65.81,1.44S546.6,462.33,546.77,462.34Z" style="fill:#263238"></path><polygon points="565.02 434.72 567.88 462.53 580.62 460.41 580.91 433.03 565.02 434.72" style="fill:#bf654e"></polygon><path d="M580.57,455.14s-8.43,7.1-13.32,2.12l-.89,2.72L563,479.14a2.5,2.5,0,0,0,1.73,2.85,2.54,2.54,0,0,0,2.59-.74c3.38-3.8,15.77-17.82,15.47-19.54l-.49-4.57a2.32,2.32,0,0,0-1.73-2Z" style="fill:#455a64"></path><g style="opacity:0.6000000000000001"><path d="M565.19,482.08l17.46-22,.09,1a2.76,2.76,0,0,1-.71,2.29c-1.37,2.21-5.27,7.23-14.64,17.84a2.56,2.56,0,0,1-2.2.83Z" style="fill:#fff"></path></g><g style="opacity:0.6000000000000001"><path d="M579.52,457.41a1.45,1.45,0,0,0-.23,1.95,1.47,1.47,0,0,0,2,.23,1.52,1.52,0,0,0,.24-2.06,1.54,1.54,0,0,0-2.09,0" style="fill:#fff"></path></g><path d="M569.79,471.24a7.5,7.5,0,0,0-2.29-1.64,7.59,7.59,0,0,0-2.84-.26c0-.06.26-.27.82-.4a4,4,0,0,1,2.21.17,3.93,3.93,0,0,1,1.76,1.3C569.78,470.87,569.85,471.22,569.79,471.24Z" style="fill:#263238"></path><path d="M568.35,474.57a18,18,0,0,0-2.24-.82,18.41,18.41,0,0,0-2.4-.08,2.8,2.8,0,0,1,2.51-.43C567.68,473.51,568.47,474.49,568.35,474.57Z" style="fill:#263238"></path><path d="M572.64,466.89a28.14,28.14,0,0,0-3.37-1.49,25.72,25.72,0,0,0-3.68-.49,5.74,5.74,0,0,1,3.83,0A5.52,5.52,0,0,1,572.64,466.89Z" style="fill:#263238"></path><path d="M572.53,461.17c-.06.15-1.45-.27-3.2-.17s-3.09.63-3.16.49a6.38,6.38,0,0,1,6.36-.32Z" style="fill:#263238"></path><path d="M568.34,461a2,2,0,0,1,0-.9,6.28,6.28,0,0,1,1-2.28,2.82,2.82,0,0,1,1.34-1.21,1,1,0,0,1,1.1.31,1.53,1.53,0,0,1,.28,1.1,3.51,3.51,0,0,1-3.38,2.91,4.08,4.08,0,0,1-3.8-2.42,1.37,1.37,0,0,1,0-1.15A1,1,0,0,1,566,457a3.51,3.51,0,0,1,1.52.95,7.09,7.09,0,0,1,1.48,2,2.14,2.14,0,0,1,.29.85,11.06,11.06,0,0,0-2-2.55,3.37,3.37,0,0,0-1.35-.8.54.54,0,0,0-.58.23,1,1,0,0,0,0,.76,3.66,3.66,0,0,0,3.33,2.06,3,3,0,0,0,2.9-2.43,1.12,1.12,0,0,0-.16-.77.56.56,0,0,0-.61-.19,2.61,2.61,0,0,0-1.15,1A8.8,8.8,0,0,0,568.34,461Z" style="fill:#263238"></path><path d="M528.43,256.75s-7.48,22.37-8.52,40.67,13.82,70.84,15.88,82.84c1.4,8.18,8.28,49,16.57,73.87h12.77s-8.28-82.84-7.94-91.47,3.45-54.54,3.45-54.54l4.49-34.86Z" style="fill:#263238"></path><path d="M597.28,265.27c-1,.34-35.36,6.26-35.36,6.26s-12.27,94.52-13.3,107,16.51,75.65,16.51,75.65h17.6s-.34-41.76-3.1-54.54-2.76-15.87-1-23.81,17.88-46,22.36-67.09S597.28,265.27,597.28,265.27Z" style="fill:#263238"></path><path d="M558.82,296.49s0,.15,0,.42-.07.69-.13,1.21c-.13,1.08-.31,2.65-.55,4.65-.5,4.05-1.22,9.89-2.11,17.08l-7.1,56.34a44.15,44.15,0,0,0,.53,8.14c.37,2.67.83,5.29,1.34,7.85,1,5.12,2.15,10,3.29,14.7,2.3,9.33,4.61,17.67,6.59,24.66s3.66,12.63,4.81,16.53c.58,1.93,1,3.44,1.34,4.49.15.49.26.88.34,1.16a3.24,3.24,0,0,1,.1.41l-.14-.39c-.1-.28-.22-.66-.39-1.16l-1.42-4.46c-1.21-3.88-2.93-9.5-4.95-16.49S556,416.32,553.65,407c-1.16-4.66-2.31-9.58-3.32-14.71-.52-2.57-1-5.2-1.35-7.88a43.09,43.09,0,0,1-.54-8.23c2.73-22,5.37-41.93,7.23-56.35,1-7.19,1.72-13,2.26-17.06.27-2,.49-3.56.64-4.64.07-.52.13-.92.17-1.21S558.82,296.49,558.82,296.49Z" style="fill:#455a64"></path><path d="M582.91,286.16a31.28,31.28,0,0,1-3.47.56c-2.15.32-5.09.83-8.3,1.6s-6.08,1.65-8.13,2.34-3.31,1.15-3.34,1.08.28-.19.84-.45,1.36-.59,2.38-1a67.51,67.51,0,0,1,8.12-2.5,68.93,68.93,0,0,1,8.38-1.46c1.08-.11,2-.18,2.57-.2A3.54,3.54,0,0,1,582.91,286.16Z" style="fill:#455a64"></path><path d="M550.28,148.73a6.89,6.89,0,1,1-6.89-6.89A6.9,6.9,0,0,1,550.28,148.73Z" style="fill:#e0e0e0"></path><path d="M550.28,148.73c-.06,0,0-.62-.32-1.66a6.85,6.85,0,0,0-2.52-3.67,6.69,6.69,0,0,0-6.31-.91,6.56,6.56,0,0,0-3.08,2.32,6.63,6.63,0,0,0,0,7.83,6.59,6.59,0,0,0,3.08,2.33,6.69,6.69,0,0,0,6.31-.92,6.81,6.81,0,0,0,2.52-3.67c.29-1,.26-1.66.32-1.65a1.25,1.25,0,0,1,0,.44,5.28,5.28,0,0,1-.15,1.26,6.8,6.8,0,0,1-2.49,3.92,7,7,0,0,1-3,1.36,7.11,7.11,0,0,1-7.07-11.21A7,7,0,0,1,541,142a7.12,7.12,0,0,1,3.74-.29,7,7,0,0,1,3,1.36,6.83,6.83,0,0,1,2.49,3.92,5.28,5.28,0,0,1,.15,1.26A1.29,1.29,0,0,1,550.28,148.73Z" style="fill:#263238"></path><path d="M539.17,141.17c0,.06-.32.34-.85.78a4.06,4.06,0,0,0-1.36,2.19,9.11,9.11,0,0,0-.21,2.69c0,.7,0,1.15,0,1.16s-.21-.42-.33-1.13a6.94,6.94,0,0,1,.07-2.85,3.92,3.92,0,0,1,1.66-2.36C538.72,141.26,539.13,141.11,539.17,141.17Z" style="fill:#7f473d"></path><path d="M548.69,144.5a6.23,6.23,0,0,1-.91,1.83,21,21,0,0,1-3.11,3.82,20.35,20.35,0,0,1-3.9,3,6.39,6.39,0,0,1-1.85.87,53,53,0,0,0,5.38-4.25A54.15,54.15,0,0,0,548.69,144.5Z" style="fill:#263238"></path><path d="M550.45,146.77a12.45,12.45,0,0,1-2.93,5.08,12.22,12.22,0,0,1-4.67,3.56,47.78,47.78,0,0,0,4.27-3.91A47.81,47.81,0,0,0,550.45,146.77Z" style="fill:#263238"></path><path d="M545.44,142.76a21.4,21.4,0,0,1-8.34,8c-.09-.14,2.06-1.6,4.35-3.81S545.31,142.67,545.44,142.76Z" style="fill:#263238"></path><path d="M548.42,153.46c-.16,0-.9-2.72-2.29-5.94s-2.88-5.67-2.75-5.75a19.94,19.94,0,0,1,3.24,5.54A20.19,20.19,0,0,1,548.42,153.46Z" style="fill:#263238"></path><path d="M542.68,154.89c-.17,0-.22-2.77-1.15-6s-2.3-5.65-2.16-5.73a14.34,14.34,0,0,1,2.67,5.59A14.75,14.75,0,0,1,542.68,154.89Z" style="fill:#263238"></path><path d="M516.15,154.35s.21-7.87.87-9.77,6.83-6.07,6.83-6.07l14.39,4L535.8,152l-10.36,7.13Z" style="fill:#bf654e"></path><path d="M504.61,141.17a13.66,13.66,0,0,0,1.36,5.72l32.27,5.4,1.19-8.36Z" style="fill:#263238"></path><path d="M526.83,160c.27-.46,9.78-5.62,9.78-5.62l4.62-5.7-1.72-7.33s-3.08.36-2.81,4.25v2.54L534,149.83s-6.43.47-9.46,2.89c-.45.37-2,4.71-2,4.71Z" style="fill:#bf654e"></path><path d="M536.9,140.43a1.68,1.68,0,0,0-2.18-1.47,3.28,3.28,0,0,0-3.73-1.2s-1.9-1.46-3.16-.2c0,0-2.91-1.32-4,.95,0,0,3.42,6.28,4.54,6.14H529s-.35,4.26,2.32,4.17l1.2-2.13s-.78,2.22.7,2.13,2.11-.73,2.11-1.92v-2.18l1.42.85C537,145.77,536.9,140.43,536.9,140.43Z" style="fill:#bf654e"></path><path d="M528.1,137.9c0-.06.48.08.83.69a5.25,5.25,0,0,1,.51,2.5,10.2,10.2,0,0,1-.08,2.54c-.17.71-.67.92-.68.84s.26-.31.31-.91-.07-1.48-.08-2.43a6.86,6.86,0,0,0-.32-2.37C528.38,138.2,528.05,138,528.1,137.9Z" style="fill:#7f473d"></path><path d="M531.7,137.68a9.52,9.52,0,0,1,.25,9.89,21.26,21.26,0,0,0,.72-5A22,22,0,0,0,531.7,137.68Z" style="fill:#7f473d"></path><path d="M534.58,139.44a13.39,13.39,0,0,1,.67,8.5c-.16,0,0-1.93-.17-4.26S534.43,139.49,534.58,139.44Z" style="fill:#7f473d"></path><path d="M517,183.05s14.51-12.52,18.72-13.55c5.49-1.34,19.24,0,19.24,0s.35,12.95,13.51,15.37S589,176.68,589,176.68s13.73,7.13,15.84,14.24,4.77,29.13,4.77,29.13l-18.43.28-4,18.47s4.43,9,8.21,17.95,5.48,20.5,5.48,20.5-31.78,8.87-43.12,8.41-35.29-10.22-35.29-10.22l5.87-31.07c.41-13,1-25.89,1-26.24,0-.75.33-15.89.33-15.89l-6.37,3.95Z" style="fill:#E85456"></path><path d="M531,184.15a18,18,0,0,1,0,3c-.05,1.88-.17,4.47-.33,7.34s-.34,5.45-.5,7.33a15.23,15.23,0,0,1-.36,3,17,17,0,0,1,0-3c.05-1.87.17-4.47.33-7.33s.34-5.46.5-7.33A17.4,17.4,0,0,1,531,184.15Z" style="fill:#263238"></path><path d="M516.15,154.35s-17.58,33.92-20.09,40.16c-4.17,10.36.81,20.79,13.2,16.47,10.66-3.72,13.75-6.11,13.75-6.11l-5.3-19.32h0l9.49-25.87Z" style="fill:#bf654e"></path><path d="M520.17,178.85a28.31,28.31,0,0,1-1,3.08c-.63,1.89-1.36,4.54-2.21,7.48a57.58,57.58,0,0,1-2.67,7.35c-.42.91-.77,1.64-1,2.14a3.28,3.28,0,0,1-.46.74,24.36,24.36,0,0,1,1.15-3c.74-1.85,1.66-4.44,2.51-7.37s1.64-5.57,2.37-7.44c.36-.94.67-1.69.92-2.19S520.13,178.84,520.17,178.85Z" style="fill:#7f473d"></path><path d="M594.66,201.1a4,4,0,0,1,0,1c-.06.64-.18,1.56-.33,2.7-.32,2.27-.84,5.41-1.5,8.85s-1.31,6.54-1.82,8.78c-.25,1.12-.47,2-.64,2.64a3.88,3.88,0,0,1-.3,1,3.41,3.41,0,0,1,.1-1c.13-.75.29-1.64.47-2.68.46-2.39,1-5.43,1.67-8.8s1.2-6.42,1.65-8.81A28.1,28.1,0,0,1,594.66,201.1Z" style="fill:#263238"></path><path d="M577.66,242.34a7.45,7.45,0,0,1-1.34,0c-.86,0-2.11,0-3.65-.09a110,110,0,0,1-23.74-3.86c-1.49-.42-2.68-.78-3.5-1.06a7.62,7.62,0,0,1-1.25-.48,5.58,5.58,0,0,1,1.31.28l3.53.89c3,.74,7.13,1.67,11.76,2.42s8.85,1.19,11.91,1.43l3.64.27A6.16,6.16,0,0,1,577.66,242.34Z" style="fill:#263238"></path><g style="opacity:0.30000000000000004"><path d="M544.18,236.9c4.07,5.14,9.36,7.78,15.81,9,6.82,1.27,14.75-1.17,20.55-4.23a92.72,92.72,0,0,1-36.36-4.75"></path></g><path d="M597.89,256.48h0c10.34-1.93,12.18-9.42,13.86-15.54l6.9-35.83-10.43-.5-6.29,14.67-10.5.16-2.5,10.76a38.55,38.55,0,0,0,.54,19.49h0A9.45,9.45,0,0,0,597.89,256.48Z" style="fill:#bf654e"></path><path d="M608.67,181.34s.13-2,2.65-1.3,10.93,4.08,11.18,5.3-4.08,20.8-4.08,20.8l-10.64.44a14.22,14.22,0,0,1,0-5.42c.57-2.69,1.63-6.36,1.63-6.36l-1.31-.49s.47,1-.7.82a7.94,7.94,0,0,1-2.89-1.72s-.16-4.56.41-5.22a2.64,2.64,0,0,1,1.22-.81s-1.06-2.53.9-2.86C607,184.52,606.76,181.34,608.67,181.34Z" style="fill:#bf654e"></path><path d="M612.27,191.58c-.08,0-.06-.47-.49-1a7.5,7.5,0,0,0-2.25-1.53,14.85,14.85,0,0,0-2.53-1.17c-.67-.22-1.12-.29-1.11-.37s.46-.13,1.21,0a9.08,9.08,0,0,1,2.68,1.07,5.79,5.79,0,0,1,2.31,1.78C612.51,191.07,612.33,191.61,612.27,191.58Z" style="fill:#7f473d"></path><path d="M614.38,187.88a7.42,7.42,0,0,0-7.43-3.16c0-.06.43-.3,1.24-.42a5.91,5.91,0,0,1,5.63,2.39C614.3,187.36,614.44,187.85,614.38,187.88Z" style="fill:#7f473d"></path><path d="M616.63,184.76c-.1.13-1.66-1.08-3.89-2s-4.17-1.11-4.16-1.27a10.8,10.8,0,0,1,8,3.23Z" style="fill:#7f473d"></path><path d="M607.63,206.16a6.33,6.33,0,0,1-.53,1.33c-.42.93-1,2.12-1.6,3.56-1.34,3-3.15,7.17-5,11.85s-3.31,9-4.35,12.11l-1.22,3.7a6.69,6.69,0,0,1-.51,1.34,8.32,8.32,0,0,1,.31-1.4c.23-.89.59-2.18,1.07-3.76.94-3.16,2.38-7.48,4.21-12.18s3.68-8.85,5.12-11.82c.72-1.49,1.32-2.68,1.75-3.49A7.79,7.79,0,0,1,607.63,206.16Z" style="fill:#7f473d"></path></g><g id="freepik--character-1--inject-33"><path d="M245.16,111.79A5,5,0,0,0,246.5,102a5.17,5.17,0,0,0-5.17-8.34,6.2,6.2,0,0,0-9.71-4.33,7,7,0,0,0-8.55.5,4.95,4.95,0,0,0-3.7,8.71" style="fill:#263238"></path><path d="M212.48,161.23l-5-42.39c-1.92-11.64,3.26-22.46,14.95-24.06l1.09-.08a21.09,21.09,0,0,1,22.46,17.73c1.61,10.09,3.25,21.27,3.6,26.73.73,11.3-10.42,13.92-10.42,13.92l1,9.36-12.44,11.5Z" style="fill:#ffbf9d"></path><path d="M239.2,153.06a27.47,27.47,0,0,1-15.13-3.19s4.11,7.86,15.3,6Z" style="fill:#ff9a6c"></path><path d="M244,122a1.62,1.62,0,0,1-1.43,1.75,1.55,1.55,0,0,1-1.77-1.33,1.6,1.6,0,0,1,1.43-1.74A1.53,1.53,0,0,1,244,122Z" style="fill:#263238"></path><path d="M243.93,118.14c-.18.22-1.47-.59-3.21-.45s-2.94,1.1-3.14.91.07-.49.6-.93a4.37,4.37,0,0,1,2.49-1,4.25,4.25,0,0,1,2.58.62C243.81,117.67,244,118,243.93,118.14Z" style="fill:#263238"></path><path d="M228.11,124.16a1.61,1.61,0,0,1-1.43,1.74,1.53,1.53,0,0,1-1.77-1.32,1.62,1.62,0,0,1,1.42-1.75A1.55,1.55,0,0,1,228.11,124.16Z" style="fill:#263238"></path><path d="M226.9,119.77c-.18.23-1.47-.58-3.2-.44s-2.94,1.1-3.15.91.07-.49.6-.93a4.41,4.41,0,0,1,2.5-1,4.2,4.2,0,0,1,2.57.62C226.78,119.31,227,119.67,226.9,119.77Z" style="fill:#263238"></path><path d="M234.19,132.15a12.48,12.48,0,0,1,2.78-.72c.44-.08.85-.2.9-.51a2.28,2.28,0,0,0-.39-1.29l-1.57-3.27c-2.19-4.67-3.81-8.51-3.63-8.6s2.12,3.62,4.31,8.29c.53,1.15,1,2.24,1.52,3.29a2.58,2.58,0,0,1,.36,1.72,1.12,1.12,0,0,1-.68.71,3.3,3.3,0,0,1-.74.16A11.1,11.1,0,0,1,234.19,132.15Z" style="fill:#263238"></path><path d="M225.92,112.5c-.12.48-1.68.34-3.49.7s-3.24,1-3.5.58c-.12-.2.11-.66.67-1.15a5.55,5.55,0,0,1,2.56-1.18,5.42,5.42,0,0,1,2.77.2C225.62,111.92,226,112.27,225.92,112.5Z" style="fill:#263238"></path><path d="M241.81,109.5c-.28.47-1.77.38-3.46.73s-3.06.94-3.47.61c-.19-.17,0-.6.49-1.1a5.59,5.59,0,0,1,2.67-1.25,5.44,5.44,0,0,1,2.92.17C241.64,108.93,241.92,109.28,241.81,109.5Z" style="fill:#263238"></path><path d="M244.45,107.33s-3.53-6.84-7.06-8.22c-4.28-1.68-5.71,3-9.73,2.19s-8.1-2.41-11.89.94c-4.14,3.67-1.9,5.84-1.78,10.87.46,20.39-2.8,26.42-4.6,16.94-.19-1-3.17-1.65-3.94-6-1-5.7-1.76-12.66-.79-16.83.81-3.52,2.59-6,5.9-8.93,5.22-4.55,12.83-5.23,18-5.11S244.23,98.44,244.45,107.33Z" style="fill:#263238"></path><path d="M210.09,129.69a3.07,3.07,0,0,0-3.54-2.7c-2.09.36-4.34,1.74-3.86,6.08.84,7.69,8.39,5.26,8.38,5S210.47,132.9,210.09,129.69Z" style="fill:#ffbf9d"></path><path d="M209.08,135.4s-.12.1-.34.23a1.31,1.31,0,0,1-1,.13c-.84-.21-1.67-1.42-1.86-2.81a4.52,4.52,0,0,1,.17-2,1.55,1.55,0,0,1,.89-1.14.68.68,0,0,1,.83.28c.13.21.1.37.14.38s.15-.15.06-.46a.87.87,0,0,0-.36-.45,1,1,0,0,0-.76-.12,1.89,1.89,0,0,0-1.27,1.35,4.55,4.55,0,0,0-.23,2.2c.22,1.54,1.17,2.91,2.32,3.11a1.44,1.44,0,0,0,1.2-.34C209.09,135.58,209.11,135.41,209.08,135.4Z" style="fill:#ff9a6c"></path><path d="M209.09,114.72a7.31,7.31,0,0,0,3.38,1.26,2.54,2.54,0,0,0,2.66-2c.05-.54-.13-1.15.19-1.6s1.17-.43,1.82-.41c2.27.06,4.7-2.62,5.1-4.84a2,2,0,0,0,2.73.35,7.26,7.26,0,0,0,1.74-1.8,3.15,3.15,0,0,1,2.54-1.53,7.27,7.27,0,0,0,1.71.24c1-.17,1.41-1.39,1.49-2.41s.1-2.2.92-2.81,1.81-.36,2.75-.29,2.13-.25,2.3-1.18a1.84,1.84,0,0,0-.45-1.37,5,5,0,0,0-6.05-1.44,6.79,6.79,0,0,0-12.55-.35,7,7,0,0,0-6.27-1.14,7.06,7.06,0,0,0-4.53,4.49,5,5,0,0,0-5,7.68,4.76,4.76,0,0,0-2.32,4c.1,1.6,1.78,3.07,3.28,2.54a2.77,2.77,0,0,0,5,2.38" style="fill:#263238"></path><path d="M232.67,97.13s0,0,0,.14,0,.23,0,.41a4.94,4.94,0,0,1-.44,1.53,5.59,5.59,0,0,1-1.58,2,5.16,5.16,0,0,1-3.09,1.15l.12-.19a2.81,2.81,0,0,1,0,2.15,8.3,8.3,0,0,1-1.17,2,6.21,6.21,0,0,1-.8,1,2.71,2.71,0,0,1-1.19.55,2.83,2.83,0,0,1-2.55-.7l.28-.11a5.83,5.83,0,0,1-2.14,4.2,4.21,4.21,0,0,1-2.47,1,7.3,7.3,0,0,1-2.54-.35l.19-.11a6.14,6.14,0,0,1-1.64,2.53,3.26,3.26,0,0,1-2.63.94,4.27,4.27,0,0,1-3.53-3.08l.18.07a4,4,0,0,1-2.62.59,4.29,4.29,0,0,1-1.91-.68,3.7,3.7,0,0,1-.94-.88,2.88,2.88,0,0,1-.23-.38,4.73,4.73,0,0,0,1.24,1.15,4.34,4.34,0,0,0,1.86.61,3.8,3.8,0,0,0,2.47-.61l.14-.09,0,.16a4,4,0,0,0,3.33,2.84,2.93,2.93,0,0,0,2.39-.88,5.71,5.71,0,0,0,1.54-2.39l.05-.15.15,0a7.18,7.18,0,0,0,2.43.34,3.89,3.89,0,0,0,2.28-1,5.51,5.51,0,0,0,2-4l0-.36.27.26a2.51,2.51,0,0,0,2.25.62,2.41,2.41,0,0,0,1-.48,5,5,0,0,0,.75-.89,7.41,7.41,0,0,0,1.15-1.92,2.51,2.51,0,0,0,0-1.94l-.07-.18h.19a5,5,0,0,0,3-1,5.68,5.68,0,0,0,1.57-1.86A6.14,6.14,0,0,0,232.67,97.13Z" style="fill:#455a64"></path><path d="M235.92,135.65c-1.33-.32-3.83-.55-5.16-.87a1.64,1.64,0,0,0-.82-.05c-.62.18-.79,1-.71,1.64a4.25,4.25,0,0,0,1.85,3.06,3.29,3.29,0,0,0,3.48,0A4.36,4.36,0,0,0,235.92,135.65Z" style="fill:#ff9a6c"></path><path d="M234.69,139.45a2.77,2.77,0,0,1-2.17.45,3.69,3.69,0,0,1-2.22-1.12,4.35,4.35,0,0,1-1.18-2.8,2.19,2.19,0,0,1,.14-.86,1.13,1.13,0,0,1,.68-.64,3.35,3.35,0,0,1,1.52.1l2.33.49a8.63,8.63,0,0,1,2.13.58,9.72,9.72,0,0,1-2.2-.21l-2.35-.38a3.3,3.3,0,0,0-1.26-.09c-.33.09-.48.54-.46,1a4,4,0,0,0,1,2.48,3.42,3.42,0,0,0,1.92,1.08A6.72,6.72,0,0,0,234.69,139.45Z" style="fill:#263238"></path><path d="M161.93,440l-7.67,24.81-.2,21.44a2.65,2.65,0,0,1-3,2.58h0a2.85,2.85,0,0,1-2.15-1.33C146,482.73,135.6,465.25,136,463.69c.56-2,6.3-27.13,6.3-27.13Z" style="fill:#455a64"></path><path d="M151.1,488.85l-14.37-28.06-.5,1.87a3.09,3.09,0,0,0,0,2.44,228.9,228.9,0,0,0,12.35,22.73c.47.78,1.63.95,2.55,1Z" style="fill:#263238"></path><path d="M144.13,455.06a1.58,1.58,0,0,1-.13,2.15,1.59,1.59,0,0,1-2.05-2.43,1.71,1.71,0,0,1,2.28.41" style="fill:#fff"></path><path d="M148.27,476.24a8.24,8.24,0,0,1,2.82-1.3,8.61,8.61,0,0,1,3.14.31c0-.06-.23-.35-.82-.6a4.37,4.37,0,0,0-2.43-.27,4.27,4.27,0,0,0-2.18,1C148.35,475.84,148.21,476.2,148.27,476.24Z" style="fill:#263238"></path><path d="M149.16,480.11a23.14,23.14,0,0,1,2.6-.42c1.45,0,2.54.56,2.62.41a3.15,3.15,0,0,0-2.63-1A3,3,0,0,0,149.16,480.11Z" style="fill:#263238"></path><path d="M146.05,471a26.5,26.5,0,0,1,4-.91,28.89,28.89,0,0,1,4.09.23,6.33,6.33,0,0,0-4.16-.8C147.54,469.68,145.94,470.86,146.05,471Z" style="fill:#263238"></path><path d="M147.72,463.22c0,.17,1.63,0,3.51.47s3.23,1.32,3.33,1.18a7.11,7.11,0,0,0-6.84-1.65Z" style="fill:#263238"></path><path d="M149.79,455.88a13.84,13.84,0,0,1,3.65.39,13.72,13.72,0,0,1,3.2,1.82c.06,0-.13-.43-.64-.94a6,6,0,0,0-2.38-1.42,6.18,6.18,0,0,0-2.77-.24C150.15,455.61,149.76,455.81,149.79,455.88Z" style="fill:#263238"></path><path d="M153.79,454.87s.19-.31.31-.94a6.78,6.78,0,0,0-.08-2.7,3.11,3.11,0,0,0-.9-1.76,1.13,1.13,0,0,0-1.27-.11,1.65,1.65,0,0,0-.73,1,3.85,3.85,0,0,0,2.34,4.29,4.57,4.57,0,0,0,4.9-1,1.46,1.46,0,0,0,.42-1.19,1.1,1.1,0,0,0-.95-.84,4,4,0,0,0-2,.36,7.7,7.7,0,0,0-2.32,1.44c-.47.43-.67.73-.64.75a12.11,12.11,0,0,1,3.12-1.81,3.7,3.7,0,0,1,1.71-.28.58.58,0,0,1,.51.46,1,1,0,0,1-.32.77,4.06,4.06,0,0,1-4.25.79,3.34,3.34,0,0,1-2.05-3.61,1.26,1.26,0,0,1,.48-.73.62.62,0,0,1,.7,0,2.79,2.79,0,0,1,.79,1.48A9.6,9.6,0,0,1,153.79,454.87Z" style="fill:#263238"></path><path d="M268.8,430.74l.3,36.17,45-.14c-.27-4.3-23.58-12.86-23.58-12.86l.76-23.18Z" style="fill:#455a64"></path><path d="M276.59,452a1.83,1.83,0,0,0-1.26,2.1,1.76,1.76,0,0,0,2.07,1.27,1.93,1.93,0,0,0,1.32-2.23,1.84,1.84,0,0,0-2.3-1.09" style="fill:#fff"></path><path d="M269.09,467l0-3.87,43.28,1.52s2,.87,1.77,2.28Z" style="fill:#263238"></path><path d="M291.24,453.68c0,.22-1.11.32-2.19,1s-1.65,1.64-1.85,1.55.12-1.35,1.44-2.19S291.29,453.48,291.24,453.68Z" style="fill:#263238"></path><path d="M296,455.62c.05.21-.9.59-1.64,1.52s-.95,1.91-1.17,1.91-.37-1.26.58-2.4S296,455.41,296,455.62Z" style="fill:#263238"></path><path d="M298.66,461.26c-.2.05-.51-1.05,0-2.26s1.59-1.68,1.68-1.5-.54.83-1,1.82S298.88,461.24,298.66,461.26Z" style="fill:#263238"></path><path d="M290.83,448.38c-.1.2-1.11-.1-2.35,0s-2.21.48-2.32.29.81-1,2.28-1.05S290.93,448.21,290.83,448.38Z" style="fill:#263238"></path><path d="M254.84,268.85s44.93,82.58,46.14,88.22-7.25,92.69-7.25,92.69H265.88s-.4-59.5.4-68.77,1.06-15,1.06-15-36.88-55.27-40.1-57.28-5.51,0-5.51,0L193.7,386l-33.19,68.08-25.37-3.43s10.73-36.18,17.94-57.82c0,0,9.14-23,9.47-22.61l21-100.38C184.76,269.32,254.84,268.85,254.84,268.85Z" style="fill:#263238"></path><path d="M172.68,154.22,171.37,186l12.77,5.22v49.24l-3.28,39.8c31.4,5.83,58.4,9,82,.42l-5-31.77,1.72-49.61.3-33.43-20-5.62s-8.65,14.8-27.61-.94l-11.93-.19a106.21,106.21,0,0,0-10.83-2.56C182.67,155.48,172.68,154.22,172.68,154.22Z" style="fill:#E85456"></path><path d="M257.76,208l24.14-17.66s-9.62-16.1-15.36-21.18a22.23,22.23,0,0,0-12.45-5.4Z" style="fill:#E85456"></path><path d="M258.84,184.62a4.53,4.53,0,0,1,.05.63c0,.47,0,1.07,0,1.81,0,1.58,0,3.85,0,6.66,0,5.62-.15,13.38-.33,22s-.35,16.27-.48,21.95c-.06,2.75-.1,5-.14,6.65,0,.74,0,1.34-.06,1.81a2.42,2.42,0,0,1-.05.63,2.42,2.42,0,0,1,0-.63c0-.47,0-1.07-.05-1.81,0-1.57,0-3.85,0-6.66,0-5.62.14-13.38.32-22s.36-16.27.48-21.94c.06-2.76.11-5,.15-6.66,0-.74,0-1.34,0-1.81A2.64,2.64,0,0,1,258.84,184.62Z" style="fill:#263238"></path><path d="M183.91,166.54a2.64,2.64,0,0,1,.06.63c0,.47,0,1.06.06,1.79,0,1.63.06,3.86.1,6.59.05,5.63.1,13.28.16,21.74v21.76c0,2.73,0,5-.06,6.59,0,.73,0,1.32,0,1.79a2.29,2.29,0,0,1-.05.62,3,3,0,0,1,0-.62c0-.47,0-1.06-.06-1.79,0-1.63-.06-3.86-.11-6.59,0-5.63-.09-13.29-.15-21.75V175.56c0-2.74,0-5,.06-6.6,0-.73,0-1.32,0-1.79A4.77,4.77,0,0,1,183.91,166.54Z" style="fill:#263238"></path><path d="M252.14,276.78a2.63,2.63,0,0,1-.58.18l-1.68.41c-.74.18-1.64.39-2.69.57s-2.25.45-3.59.62-2.79.41-4.37.55-3.27.28-5,.4a105.91,105.91,0,0,1-11.6-.14,102.45,102.45,0,0,1-11.5-1.54c-1.75-.37-3.41-.7-4.94-1.11s-3-.79-4.26-1.18-2.44-.79-3.45-1.13-1.88-.67-2.58-1l-1.61-.65a3.56,3.56,0,0,1-.54-.26,2.67,2.67,0,0,1,.58.16l1.64.56c.71.25,1.58.55,2.6.86s2.17.71,3.47,1.05,2.71.76,4.25,1.11,3.19.71,4.93,1.06a109.76,109.76,0,0,0,11.45,1.49,113.3,113.3,0,0,0,11.54.18c1.77-.1,3.46-.17,5-.34s3-.31,4.36-.49,2.53-.37,3.59-.54,2-.33,2.69-.48l1.71-.32A2.7,2.7,0,0,1,252.14,276.78Z" style="fill:#263238"></path><path d="M118,98.72c0,.76,22.16,41.67,22.16,41.67l32.46,14.93-1.27,27.52s-43.4-23.5-47-28.62c-4.52-6.45-18.84-49.91-19.4-49.39S118,98.72,118,98.72Z" style="fill:#ffbf9d"></path><path d="M106.41,77.61c.34,0,6.36.91,6.36.91l5.65,9L118,100.06l-11.56,6.12S96.65,97,96.09,94.62s.79-6.12.79-6.12S97,85.84,99.52,86c0,0-1.47-2.92,1.48-3.37,0,0,.08-1.87,1.67-2,0,0-5.51-10.43-5.06-11.78.38-1.15,2.29-1.17,3.65.64A97,97,0,0,1,106,78Z" style="fill:#ffbf9d"></path><path d="M112.77,83.16c0,.16-2.19-.25-4.62-1.36a6,6,0,0,1-1.65-1,2.61,2.61,0,0,1-.85-1.39c-.15-1,.28-1.46.32-1.41a3.94,3.94,0,0,0,0,1.32,3.7,3.7,0,0,0,2.35,2C110.76,82.4,112.79,83,112.77,83.16Z" style="fill:#ff9a6c"></path><path d="M99.58,86a1.92,1.92,0,0,1,.85-.11,6.59,6.59,0,0,1,2.31.46,7,7,0,0,1,2.83,2,5.81,5.81,0,0,1,1.06,1.82,2.72,2.72,0,0,1,.16,1.15,1.76,1.76,0,0,1-.53,1.15,2.26,2.26,0,0,1-2.84,0A4.85,4.85,0,0,1,102,90.37l.27.14a4.1,4.1,0,0,1-2.73-.4l.26-.2a3.25,3.25,0,0,1-.44,2.17c-.28.44-.52.6-.54.58s.16-.23.37-.68a3.25,3.25,0,0,0,.25-2l-.07-.36.33.16a3.86,3.86,0,0,0,2.47.27l.18,0,.08.18a4.45,4.45,0,0,0,1.32,1.87,1.73,1.73,0,0,0,2.16,0,1.66,1.66,0,0,0,.25-1.75,5.49,5.49,0,0,0-1-1.67,6.93,6.93,0,0,0-2.6-2A10.1,10.1,0,0,0,99.58,86Z" style="fill:#ff9a6c"></path><path d="M106.84,91s.15.19.49.35a1.46,1.46,0,0,0,1.47-.19,2.1,2.1,0,0,0,.55-2.13,6.82,6.82,0,0,0-1.54-2.56,14.12,14.12,0,0,0-4.45-3.32,23.29,23.29,0,0,1-2.14-1,6.55,6.55,0,0,1,2.29.63,12.75,12.75,0,0,1,4.71,3.32,7,7,0,0,1,1.61,2.8,2.48,2.48,0,0,1-.8,2.54,1.61,1.61,0,0,1-1.8.07C106.86,91.31,106.81,91,106.84,91Z" style="fill:#ff9a6c"></path><path d="M109,88.05s.26.09.7.23a3,3,0,0,0,1.89,0,2,2,0,0,0,1.4-2,4.89,4.89,0,0,0-2-2.73,12.8,12.8,0,0,0-5.9-2.65c-1.67-.27-2.73-.16-2.73-.25s.25-.1.73-.15a11.07,11.07,0,0,1,2,0,12.14,12.14,0,0,1,6.19,2.6,5.23,5.23,0,0,1,2.18,3.09,2.16,2.16,0,0,1-.51,1.66,2.58,2.58,0,0,1-1.27.8,3.06,3.06,0,0,1-2.07-.21C109.2,88.27,109,88.08,109,88.05Z" style="fill:#ff9a6c"></path><path d="M113,87.45c.11.11-.93,1.31-1.68,3.06s-1,3.33-1.11,3.31A7.58,7.58,0,0,1,113,87.45Z" style="fill:#ff9a6c"></path><path d="M250.16,157.59s-2.09-2.74-3.72-1.61-.63,5.39-.63,5.39,5.27,9.91,7.4,12.42a24.76,24.76,0,0,0,6.33,4.64l9.72-3.39.75-10.53-17.55-6.15Z" style="fill:#ffbf9d"></path><path d="M251.93,150.2a5.94,5.94,0,1,1-5.94-5.94A5.94,5.94,0,0,1,251.93,150.2Z" style="fill:#e0e0e0"></path><path d="M251.93,150.2c-.06,0,0-.53-.29-1.43a5.93,5.93,0,0,0-2.17-3.14,5.7,5.7,0,1,0,0,9.14,6,6,0,0,0,2.17-3.15c.25-.89.23-1.42.29-1.42s0,.13,0,.38a4.6,4.6,0,0,1-.12,1.09,5.9,5.9,0,0,1-2.14,3.4,6.12,6.12,0,0,1-5.82.93,6,6,0,0,1-2.88-2.14,6.16,6.16,0,0,1,0-7.33,6.13,6.13,0,0,1,8.7-1.2,5.91,5.91,0,0,1,2.14,3.39,4.67,4.67,0,0,1,.12,1.1C252,150.07,252,150.2,251.93,150.2Z" style="fill:#263238"></path><path d="M244.72,156a15.72,15.72,0,0,1-1.66-5.13,15.61,15.61,0,0,1-.37-5.37c.16,0,.32,2.38.89,5.27S244.87,155.94,244.72,156Z" style="fill:#263238"></path><path d="M248.88,155.38a20.79,20.79,0,0,1-1.8-5.49,20.6,20.6,0,0,1-.71-5.74c.15,0,.53,2.53,1.23,5.62S249,155.33,248.88,155.38Z" style="fill:#263238"></path><path d="M251.61,152.22c0,.16-2.46,0-5.47.21s-5.42.63-5.45.48a16.29,16.29,0,0,1,5.42-1A16.63,16.63,0,0,1,251.61,152.22Z" style="fill:#263238"></path><path d="M250.77,147.21c0,.15-2.33.09-5.17.36s-5.1.77-5.14.62a20.55,20.55,0,0,1,10.31-1Z" style="fill:#263238"></path><path d="M251.88,150.65s-5-1.08-5.89,5.81l16.87,17.47c2-.54,3.34-1.52,3.75-3Z" style="fill:#263238"></path><path d="M268.88,172.05s27,36.54,30,42c3.69,6.69,3,14.53-3.45,18s-18.09-3.61-22.94-9.3c-4.31-5.05-12.63-16.43-12.63-16.43L270,198.82l-10.47-20.39Z" style="fill:#ffbf9d"></path><path d="M248.32,161.25s3.63-7.78,5.14-8.28,8.9,2.13,8.9,2.13,4.39-.63,4.89,2.51c0,0,2.76.38,2,3.64,0,0,2,1.63,1.5,3.63s-8.27,2-8.27,2h-2l-1.5,5.52a3.18,3.18,0,0,1-3.26-3s-3.26-.76-3.26-3.39c0,0-3.22.83-2.62-1.71C249.84,164.3,247.82,164.26,248.32,161.25Z" style="fill:#ffbf9d"></path><path d="M265.06,161.51c0,.08-1,.06-2.68.2-.82.07-1.8.18-2.87.37a4.07,4.07,0,0,0-1.52.5,2.37,2.37,0,0,0-.83,1.4c-.15.59-.25,1.23-.42,1.81s-.35,1.12-.45,1.64a3.39,3.39,0,0,0,.33,2.65,1.88,1.88,0,0,0,1.56.78,4.23,4.23,0,0,0,.67-.16s-.15.26-.65.36a2,2,0,0,1-1.88-.76,3.62,3.62,0,0,1-.51-3c.1-.56.27-1.12.42-1.69s.25-1.16.41-1.8a2.81,2.81,0,0,1,1.06-1.69,4.17,4.17,0,0,1,1.73-.56,22.91,22.91,0,0,1,2.93-.27A9.07,9.07,0,0,1,265.06,161.51Z" style="fill:#ff9a6c"></path><path d="M267.79,166.66a9.83,9.83,0,0,1-3.53.51,9.72,9.72,0,0,1-3.55-.26,15.26,15.26,0,0,1,3.53-.27A15.92,15.92,0,0,1,267.79,166.66Z" style="fill:#ff9a6c"></path><path d="M262.18,157.1c0,.1-1.12,0-2.88,0a6.3,6.3,0,0,0-2.9.8,5.8,5.8,0,0,0-2.18,2.89,22.66,22.66,0,0,0-1.21,3.59,4.13,4.13,0,0,0,.36,2.91,2.89,2.89,0,0,0,1.47,1.31c.45.16.74.14.74.18s-.28.13-.8,0a2.92,2.92,0,0,1-1.73-1.32,4.37,4.37,0,0,1-.52-3.18,19,19,0,0,1,1.2-3.71,6.06,6.06,0,0,1,2.42-3.11,6.38,6.38,0,0,1,3.13-.76,12.26,12.26,0,0,1,2.14.17A2.38,2.38,0,0,1,262.18,157.1Z" style="fill:#ff9a6c"></path><path d="M254,155.06a49.63,49.63,0,0,0-2.59,4.5,48.15,48.15,0,0,0-1.62,4.94,13.07,13.07,0,0,1,4.21-9.44Z" style="fill:#ff9a6c"></path><path d="M252.58,166.7s-.52.37-1.45.12a2.41,2.41,0,0,1-1.32-1,2.55,2.55,0,0,1-.3-2l.25.34a1.87,1.87,0,0,1-.4-.07,2.13,2.13,0,0,1-1.33-1.74,3.17,3.17,0,0,1,.33-1.72c.45-.87.85-1.29.9-1.26s-.22.56-.55,1.4a2.94,2.94,0,0,0-.19,1.5,1.67,1.67,0,0,0,1,1.31,1.32,1.32,0,0,0,.26,0l.33,0-.09.31a2.16,2.16,0,0,0,.21,1.63,2,2,0,0,0,1,.9A5.54,5.54,0,0,0,252.58,166.7Z" style="fill:#ff9a6c"></path><path d="M282.89,221.15a3.6,3.6,0,0,1-.64-.79c-.38-.53-.91-1.32-1.55-2.29-1.28-2-3-4.72-4.72-7.81s-3.27-5.95-4.34-8c-.54-1-1-1.88-1.24-2.47a4,4,0,0,1-.39-.94,3.44,3.44,0,0,1,.57.84l1.39,2.39c1.21,2.16,2.76,4.9,4.48,7.94s3.38,5.87,4.57,7.88A30.21,30.21,0,0,1,282.89,221.15Z" style="fill:#ff9a6c"></path></g></svg>