<svg width="48" height="48" viewBox="0 0 48 48" fill="none" xmlns="http://www.w3.org/2000/svg">
<path d="M16 36V11.432C15.9999 10.4764 16.3419 9.55237 16.9641 8.82709C17.5862 8.10182 18.4475 7.62325 19.392 7.478L37.392 4.708C37.962 4.62034 38.5443 4.65698 39.0988 4.81541C39.6534 4.97384 40.1671 5.25032 40.6048 5.62589C41.0425 6.00146 41.3938 6.46724 41.6346 6.99129C41.8754 7.51534 42.0001 8.08526 42 8.662V32" stroke="#E85456" stroke-width="2" stroke-linecap="round" stroke-linejoin="round"/>
<path d="M16 18L42 14" stroke="#E85456" stroke-width="2"/>
<path d="M16 36C16 37.5913 15.3679 39.1174 14.2426 40.2426C13.1174 41.3679 11.5913 42 10 42C8.4087 42 6.88258 41.3679 5.75736 40.2426C4.63214 39.1174 4 37.5913 4 36C4 32.686 6.686 32 10 32C13.314 32 16 32.686 16 36ZM42 32C42 33.5913 41.3679 35.1174 40.2426 36.2426C39.1174 37.3679 37.5913 38 36 38C34.4087 38 32.8826 37.3679 31.7574 36.2426C30.6321 35.1174 30 33.5913 30 32C30 28.686 32.686 28 36 28C39.314 28 42 28.686 42 32Z" stroke="#E85456" stroke-width="2" stroke-linecap="round" stroke-linejoin="round"/>
</svg>
